<mxfile host="Electron" modified="2023-11-30T00:32:09.226Z" agent="Mozilla/5.0 (X11; Linux x86_64) AppleWebKit/537.36 (KHTML, like Gecko) draw.io/22.1.2 Chrome/114.0.5735.289 Electron/25.9.4 Safari/537.36" etag="gi4fnn0DGLE9l_7nVabS" version="22.1.2" type="device" pages="6">
  <diagram name="Event Storming" id="dzs-5oHj5AphAL6cpdhJ">
    <mxGraphModel dx="1170" dy="771" grid="0" gridSize="10" guides="1" tooltips="1" connect="1" arrows="1" fold="1" page="0" pageScale="1" pageWidth="827" pageHeight="1169" math="0" shadow="0">
      <root>
        <mxCell id="0" />
        <mxCell id="1" parent="0" />
        <mxCell id="vdVrn63xV2FAy3u7jHGA-5" value="Event Storming" style="swimlane;whiteSpace=wrap;html=1;collapsible=0;strokeColor=#B3B3B3;" parent="1" vertex="1">
          <mxGeometry x="-80" y="12" width="1894" height="568" as="geometry" />
        </mxCell>
        <mxCell id="vdVrn63xV2FAy3u7jHGA-17" style="rounded=0;orthogonalLoop=1;jettySize=auto;html=1;" parent="vdVrn63xV2FAy3u7jHGA-5" source="vdVrn63xV2FAy3u7jHGA-1" target="vdVrn63xV2FAy3u7jHGA-14" edge="1">
          <mxGeometry relative="1" as="geometry" />
        </mxCell>
        <mxCell id="vdVrn63xV2FAy3u7jHGA-1" value="Development&lt;br&gt;Team" style="shape=umlActor;verticalLabelPosition=bottom;verticalAlign=top;html=1;outlineConnect=0;" parent="vdVrn63xV2FAy3u7jHGA-5" vertex="1">
          <mxGeometry x="33" y="67.5" width="30" height="60" as="geometry" />
        </mxCell>
        <mxCell id="vdVrn63xV2FAy3u7jHGA-21" style="edgeStyle=none;shape=connector;rounded=0;orthogonalLoop=1;jettySize=auto;html=1;labelBackgroundColor=default;strokeColor=default;align=center;verticalAlign=middle;fontFamily=Helvetica;fontSize=11;fontColor=default;endArrow=classic;" parent="vdVrn63xV2FAy3u7jHGA-5" source="vdVrn63xV2FAy3u7jHGA-8" target="vdVrn63xV2FAy3u7jHGA-15" edge="1">
          <mxGeometry relative="1" as="geometry" />
        </mxCell>
        <mxCell id="vdVrn63xV2FAy3u7jHGA-8" value="Code Merged to&lt;br&gt;a Branch" style="shape=note;whiteSpace=wrap;html=1;backgroundOutline=1;darkOpacity=0.05;size=19;fillColor=#ffe6cc;strokeColor=#d79b00;" parent="vdVrn63xV2FAy3u7jHGA-5" vertex="1">
          <mxGeometry x="279" y="63" width="110" height="69" as="geometry" />
        </mxCell>
        <object placeholders="1" c4Name="Delivery (CI/CD Tool)" c4Type="ContainerScopeBoundary" c4Application="Context" label="&lt;font style=&quot;font-size: 16px&quot;&gt;&lt;b&gt;&lt;div style=&quot;text-align: left&quot;&gt;%c4Name%&lt;/div&gt;&lt;/b&gt;&lt;/font&gt;&lt;div style=&quot;text-align: left&quot;&gt;[%c4Application%]&lt;/div&gt;" id="vdVrn63xV2FAy3u7jHGA-13">
          <mxCell style="rounded=1;fontSize=11;whiteSpace=wrap;html=1;dashed=1;arcSize=20;fillColor=none;strokeColor=#666666;fontColor=#333333;labelBackgroundColor=none;align=left;verticalAlign=bottom;labelBorderColor=none;spacingTop=0;spacing=10;dashPattern=8 4;metaEdit=1;rotatable=0;perimeter=rectanglePerimeter;noLabel=0;labelPadding=0;allowArrows=0;connectable=0;expand=0;recursiveResize=0;editable=1;pointerEvents=0;absoluteArcSize=1;points=[[0.25,0,0],[0.5,0,0],[0.75,0,0],[1,0.25,0],[1,0.5,0],[1,0.75,0],[0.75,1,0],[0.5,1,0],[0.25,1,0],[0,0.75,0],[0,0.5,0],[0,0.25,0]];" parent="vdVrn63xV2FAy3u7jHGA-5" vertex="1">
            <mxGeometry x="409" y="37" width="180" height="162" as="geometry" />
          </mxCell>
        </object>
        <mxCell id="vdVrn63xV2FAy3u7jHGA-20" style="edgeStyle=none;shape=connector;rounded=0;orthogonalLoop=1;jettySize=auto;html=1;labelBackgroundColor=default;strokeColor=default;align=center;verticalAlign=middle;fontFamily=Helvetica;fontSize=11;fontColor=default;endArrow=classic;" parent="vdVrn63xV2FAy3u7jHGA-5" source="vdVrn63xV2FAy3u7jHGA-14" target="vdVrn63xV2FAy3u7jHGA-8" edge="1">
          <mxGeometry relative="1" as="geometry" />
        </mxCell>
        <mxCell id="vdVrn63xV2FAy3u7jHGA-14" value="Merge Request" style="shape=note;whiteSpace=wrap;html=1;backgroundOutline=1;darkOpacity=0.05;size=19;fillColor=#dae8fc;strokeColor=#6c8ebf;" parent="vdVrn63xV2FAy3u7jHGA-5" vertex="1">
          <mxGeometry x="130" y="63" width="110" height="69" as="geometry" />
        </mxCell>
        <mxCell id="vdVrn63xV2FAy3u7jHGA-15" value="Release New Version" style="shape=note;whiteSpace=wrap;html=1;backgroundOutline=1;darkOpacity=0.05;size=19;fillColor=#dae8fc;strokeColor=#6c8ebf;" parent="vdVrn63xV2FAy3u7jHGA-5" vertex="1">
          <mxGeometry x="444" y="63" width="110" height="69" as="geometry" />
        </mxCell>
        <object placeholders="1" c4Name="SCM (Git,SVN,Subversion,etc)" c4Type="ContainerScopeBoundary" c4Application="Context" label="&lt;font style=&quot;font-size: 16px&quot;&gt;&lt;b&gt;&lt;div style=&quot;text-align: left&quot;&gt;%c4Name%&lt;/div&gt;&lt;/b&gt;&lt;/font&gt;&lt;div style=&quot;text-align: left&quot;&gt;[%c4Application%]&lt;/div&gt;" id="vdVrn63xV2FAy3u7jHGA-22">
          <mxCell style="rounded=1;fontSize=11;whiteSpace=wrap;html=1;dashed=1;arcSize=20;fillColor=none;strokeColor=#666666;fontColor=#333333;labelBackgroundColor=none;align=left;verticalAlign=bottom;labelBorderColor=none;spacingTop=0;spacing=10;dashPattern=8 4;metaEdit=1;rotatable=0;perimeter=rectanglePerimeter;noLabel=0;labelPadding=0;allowArrows=0;connectable=0;expand=0;recursiveResize=0;editable=1;pointerEvents=0;absoluteArcSize=1;points=[[0.25,0,0],[0.5,0,0],[0.75,0,0],[1,0.25,0],[1,0.5,0],[1,0.75,0],[0.75,1,0],[0.5,1,0],[0.25,1,0],[0,0.75,0],[0,0.5,0],[0,0.25,0]];" parent="vdVrn63xV2FAy3u7jHGA-5" vertex="1">
            <mxGeometry x="105" y="41" width="295" height="162" as="geometry" />
          </mxCell>
        </object>
        <object placeholders="1" c4Name="Release Manager" c4Type="ContainerScopeBoundary" c4Application="Delivery Context" label="&lt;font style=&quot;font-size: 16px&quot;&gt;&lt;b&gt;&lt;div style=&quot;text-align: left&quot;&gt;%c4Name%&lt;/div&gt;&lt;/b&gt;&lt;/font&gt;&lt;div style=&quot;text-align: left&quot;&gt;[%c4Application%]&lt;/div&gt;" id="vdVrn63xV2FAy3u7jHGA-23">
          <mxCell style="rounded=1;fontSize=11;whiteSpace=wrap;html=1;dashed=1;arcSize=20;fillColor=#f5f5f5;strokeColor=#666666;fontColor=#333333;labelBackgroundColor=none;align=left;verticalAlign=bottom;labelBorderColor=none;spacingTop=0;spacing=10;dashPattern=8 4;metaEdit=1;rotatable=0;perimeter=rectanglePerimeter;noLabel=0;labelPadding=0;allowArrows=0;connectable=0;expand=0;recursiveResize=0;editable=1;pointerEvents=0;absoluteArcSize=1;points=[[0.25,0,0],[0.5,0,0],[0.75,0,0],[1,0.25,0],[1,0.5,0],[1,0.75,0],[0.75,1,0],[0.5,1,0],[0.25,1,0],[0,0.75,0],[0,0.5,0],[0,0.25,0]];" parent="vdVrn63xV2FAy3u7jHGA-5" vertex="1">
            <mxGeometry x="608" y="37" width="777" height="511" as="geometry" />
          </mxCell>
        </object>
        <mxCell id="vdVrn63xV2FAy3u7jHGA-35" style="edgeStyle=none;shape=connector;rounded=0;orthogonalLoop=1;jettySize=auto;html=1;labelBackgroundColor=default;strokeColor=default;align=center;verticalAlign=middle;fontFamily=Helvetica;fontSize=11;fontColor=default;endArrow=classic;" parent="vdVrn63xV2FAy3u7jHGA-5" source="vdVrn63xV2FAy3u7jHGA-24" target="vdVrn63xV2FAy3u7jHGA-34" edge="1">
          <mxGeometry relative="1" as="geometry" />
        </mxCell>
        <mxCell id="vdVrn63xV2FAy3u7jHGA-24" value="Release Manager Role" style="shape=umlActor;verticalLabelPosition=bottom;verticalAlign=top;html=1;outlineConnect=0;" parent="vdVrn63xV2FAy3u7jHGA-5" vertex="1">
          <mxGeometry x="1457" y="67.5" width="30" height="60" as="geometry" />
        </mxCell>
        <mxCell id="vdVrn63xV2FAy3u7jHGA-57" style="edgeStyle=none;shape=connector;rounded=0;orthogonalLoop=1;jettySize=auto;html=1;labelBackgroundColor=default;strokeColor=default;align=center;verticalAlign=middle;fontFamily=Helvetica;fontSize=11;fontColor=default;endArrow=classic;" parent="vdVrn63xV2FAy3u7jHGA-5" source="vdVrn63xV2FAy3u7jHGA-26" target="vdVrn63xV2FAy3u7jHGA-52" edge="1">
          <mxGeometry relative="1" as="geometry" />
        </mxCell>
        <mxCell id="vdVrn63xV2FAy3u7jHGA-58" style="edgeStyle=none;shape=connector;rounded=0;orthogonalLoop=1;jettySize=auto;html=1;labelBackgroundColor=default;strokeColor=default;align=center;verticalAlign=middle;fontFamily=Helvetica;fontSize=11;fontColor=default;endArrow=classic;" parent="vdVrn63xV2FAy3u7jHGA-5" source="vdVrn63xV2FAy3u7jHGA-26" target="vdVrn63xV2FAy3u7jHGA-54" edge="1">
          <mxGeometry relative="1" as="geometry" />
        </mxCell>
        <mxCell id="vdVrn63xV2FAy3u7jHGA-26" value="Customer&lt;br&gt;End User" style="shape=umlActor;verticalLabelPosition=bottom;verticalAlign=top;html=1;outlineConnect=0;" parent="vdVrn63xV2FAy3u7jHGA-5" vertex="1">
          <mxGeometry x="1457" y="165" width="30" height="60" as="geometry" />
        </mxCell>
        <mxCell id="vdVrn63xV2FAy3u7jHGA-43" style="edgeStyle=none;shape=connector;rounded=0;orthogonalLoop=1;jettySize=auto;html=1;labelBackgroundColor=default;strokeColor=default;align=center;verticalAlign=middle;fontFamily=Helvetica;fontSize=11;fontColor=default;endArrow=classic;" parent="vdVrn63xV2FAy3u7jHGA-5" source="vdVrn63xV2FAy3u7jHGA-33" target="vdVrn63xV2FAy3u7jHGA-41" edge="1">
          <mxGeometry relative="1" as="geometry" />
        </mxCell>
        <mxCell id="vdVrn63xV2FAy3u7jHGA-33" value="Version Status Changed" style="shape=note;whiteSpace=wrap;html=1;backgroundOutline=1;darkOpacity=0.05;size=19;fillColor=#ffe6cc;strokeColor=#d79b00;" parent="vdVrn63xV2FAy3u7jHGA-5" vertex="1">
          <mxGeometry x="757" y="63" width="110" height="69" as="geometry" />
        </mxCell>
        <mxCell id="vdVrn63xV2FAy3u7jHGA-36" style="edgeStyle=none;shape=connector;rounded=0;orthogonalLoop=1;jettySize=auto;html=1;labelBackgroundColor=default;strokeColor=default;align=center;verticalAlign=middle;fontFamily=Helvetica;fontSize=11;fontColor=default;endArrow=classic;" parent="vdVrn63xV2FAy3u7jHGA-5" source="vdVrn63xV2FAy3u7jHGA-34" target="vdVrn63xV2FAy3u7jHGA-33" edge="1">
          <mxGeometry relative="1" as="geometry" />
        </mxCell>
        <mxCell id="vdVrn63xV2FAy3u7jHGA-34" value="Promote Version Status" style="shape=note;whiteSpace=wrap;html=1;backgroundOutline=1;darkOpacity=0.05;size=19;fillColor=#dae8fc;strokeColor=#6c8ebf;" parent="vdVrn63xV2FAy3u7jHGA-5" vertex="1">
          <mxGeometry x="917" y="63" width="110" height="69" as="geometry" />
        </mxCell>
        <mxCell id="vdVrn63xV2FAy3u7jHGA-42" style="edgeStyle=none;shape=connector;rounded=0;orthogonalLoop=1;jettySize=auto;html=1;labelBackgroundColor=default;strokeColor=default;align=center;verticalAlign=middle;fontFamily=Helvetica;fontSize=11;fontColor=default;endArrow=classic;" parent="vdVrn63xV2FAy3u7jHGA-5" source="vdVrn63xV2FAy3u7jHGA-37" target="vdVrn63xV2FAy3u7jHGA-41" edge="1">
          <mxGeometry relative="1" as="geometry" />
        </mxCell>
        <mxCell id="vdVrn63xV2FAy3u7jHGA-37" value="New Version Released" style="shape=note;whiteSpace=wrap;html=1;backgroundOutline=1;darkOpacity=0.05;size=19;fillColor=#ffe6cc;strokeColor=#d79b00;" parent="vdVrn63xV2FAy3u7jHGA-5" vertex="1">
          <mxGeometry x="630" y="63" width="110" height="69" as="geometry" />
        </mxCell>
        <mxCell id="vdVrn63xV2FAy3u7jHGA-47" style="edgeStyle=none;shape=connector;rounded=0;orthogonalLoop=1;jettySize=auto;html=1;labelBackgroundColor=default;strokeColor=default;align=center;verticalAlign=middle;fontFamily=Helvetica;fontSize=11;fontColor=default;endArrow=classic;" parent="vdVrn63xV2FAy3u7jHGA-5" source="vdVrn63xV2FAy3u7jHGA-41" target="vdVrn63xV2FAy3u7jHGA-46" edge="1">
          <mxGeometry relative="1" as="geometry" />
        </mxCell>
        <mxCell id="vdVrn63xV2FAy3u7jHGA-41" value="Notify Stakeholders" style="shape=note;whiteSpace=wrap;html=1;backgroundOutline=1;darkOpacity=0.05;size=19;fillColor=#dae8fc;strokeColor=#6c8ebf;" parent="vdVrn63xV2FAy3u7jHGA-5" vertex="1">
          <mxGeometry x="681" y="238" width="110" height="69" as="geometry" />
        </mxCell>
        <mxCell id="vdVrn63xV2FAy3u7jHGA-46" value="Stakeholders&lt;br&gt;Notified" style="shape=note;whiteSpace=wrap;html=1;backgroundOutline=1;darkOpacity=0.05;size=19;fillColor=#ffe6cc;strokeColor=#d79b00;" parent="vdVrn63xV2FAy3u7jHGA-5" vertex="1">
          <mxGeometry x="835" y="238" width="110" height="69" as="geometry" />
        </mxCell>
        <mxCell id="vdVrn63xV2FAy3u7jHGA-60" style="edgeStyle=none;shape=connector;rounded=0;orthogonalLoop=1;jettySize=auto;html=1;labelBackgroundColor=default;strokeColor=#666666;align=center;verticalAlign=middle;fontFamily=Helvetica;fontSize=11;fontColor=default;endArrow=classic;fillColor=#f5f5f5;dashed=1;" parent="vdVrn63xV2FAy3u7jHGA-5" source="g4QO1aUx-23dCO6SrilW-7" target="vdVrn63xV2FAy3u7jHGA-41" edge="1">
          <mxGeometry relative="1" as="geometry">
            <mxPoint x="573.9999999999995" y="274.39863325740316" as="sourcePoint" />
          </mxGeometry>
        </mxCell>
        <mxCell id="g4QO1aUx-23dCO6SrilW-8" style="rounded=0;orthogonalLoop=1;jettySize=auto;html=1;dashed=1;fillColor=#f5f5f5;strokeColor=#666666;endArrow=none;endFill=0;" edge="1" parent="vdVrn63xV2FAy3u7jHGA-5" source="vdVrn63xV2FAy3u7jHGA-61" target="g4QO1aUx-23dCO6SrilW-7">
          <mxGeometry relative="1" as="geometry" />
        </mxCell>
        <mxCell id="vdVrn63xV2FAy3u7jHGA-61" value="&lt;div&gt;Example:&lt;/div&gt;&lt;ul&gt;&lt;li&gt;&lt;span style=&quot;background-color: initial;&quot;&gt;QA&lt;/span&gt;&lt;/li&gt;&lt;li&gt;&lt;span style=&quot;background-color: initial;&quot;&gt;Helpdesk&lt;/span&gt;&lt;/li&gt;&lt;li&gt;&lt;span style=&quot;background-color: initial;&quot;&gt;Customer&lt;/span&gt;&lt;/li&gt;&lt;/ul&gt;" style="shape=note;whiteSpace=wrap;html=1;backgroundOutline=1;darkOpacity=0.05;size=19;fillColor=#f5f5f5;strokeColor=#666666;fontColor=#333333;dashed=1;spacing=2;spacingRight=15;spacingLeft=5;align=left;" parent="vdVrn63xV2FAy3u7jHGA-5" vertex="1">
          <mxGeometry x="317" y="406" width="119" height="104" as="geometry" />
        </mxCell>
        <mxCell id="vdVrn63xV2FAy3u7jHGA-71" style="edgeStyle=none;shape=connector;rounded=0;orthogonalLoop=1;jettySize=auto;html=1;labelBackgroundColor=default;strokeColor=default;align=center;verticalAlign=middle;fontFamily=Helvetica;fontSize=11;fontColor=default;endArrow=classic;" parent="vdVrn63xV2FAy3u7jHGA-5" source="vdVrn63xV2FAy3u7jHGA-65" target="vdVrn63xV2FAy3u7jHGA-68" edge="1">
          <mxGeometry relative="1" as="geometry" />
        </mxCell>
        <mxCell id="vdVrn63xV2FAy3u7jHGA-65" value="Infrastructure" style="shape=umlActor;verticalLabelPosition=bottom;verticalAlign=top;html=1;outlineConnect=0;" parent="vdVrn63xV2FAy3u7jHGA-5" vertex="1">
          <mxGeometry x="1559" y="268" width="30" height="60" as="geometry" />
        </mxCell>
        <object placeholders="1" c4Name="Router, Load Balancer, API Gateway, etc" c4Type="ContainerScopeBoundary" c4Application="Bounded Context" label="&lt;font style=&quot;font-size: 16px&quot;&gt;&lt;b&gt;&lt;div style=&quot;text-align: left&quot;&gt;%c4Name%&lt;/div&gt;&lt;/b&gt;&lt;/font&gt;&lt;div style=&quot;text-align: left&quot;&gt;[%c4Application%]&lt;/div&gt;" id="vdVrn63xV2FAy3u7jHGA-67">
          <mxCell style="rounded=1;fontSize=11;whiteSpace=wrap;html=1;dashed=1;arcSize=20;fillColor=none;strokeColor=#666666;fontColor=#333333;labelBackgroundColor=none;align=left;verticalAlign=bottom;labelBorderColor=none;spacingTop=0;spacing=10;dashPattern=8 4;metaEdit=1;rotatable=0;perimeter=rectanglePerimeter;noLabel=0;labelPadding=0;allowArrows=0;connectable=0;expand=0;recursiveResize=0;editable=1;pointerEvents=0;absoluteArcSize=1;points=[[0.25,0,0],[0.5,0,0],[0.75,0,0],[1,0.25,0],[1,0.5,0],[1,0.75,0],[0.75,1,0],[0.5,1,0],[0.25,1,0],[0,0.75,0],[0,0.5,0],[0,0.25,0]];" parent="vdVrn63xV2FAy3u7jHGA-5" vertex="1">
            <mxGeometry x="1499" y="358" width="334" height="162" as="geometry" />
          </mxCell>
        </object>
        <mxCell id="vdVrn63xV2FAy3u7jHGA-70" style="edgeStyle=none;shape=connector;rounded=0;orthogonalLoop=1;jettySize=auto;html=1;labelBackgroundColor=default;strokeColor=default;align=center;verticalAlign=middle;fontFamily=Helvetica;fontSize=11;fontColor=default;endArrow=classic;" parent="vdVrn63xV2FAy3u7jHGA-5" source="vdVrn63xV2FAy3u7jHGA-68" target="vdVrn63xV2FAy3u7jHGA-69" edge="1">
          <mxGeometry relative="1" as="geometry" />
        </mxCell>
        <mxCell id="vdVrn63xV2FAy3u7jHGA-68" value="Modify Specific Customer Route to a Specific Version" style="shape=note;whiteSpace=wrap;html=1;backgroundOutline=1;darkOpacity=0.05;size=19;fillColor=#dae8fc;strokeColor=#6c8ebf;" parent="vdVrn63xV2FAy3u7jHGA-5" vertex="1">
          <mxGeometry x="1519" y="385" width="110" height="69" as="geometry" />
        </mxCell>
        <mxCell id="vdVrn63xV2FAy3u7jHGA-69" value="Route Modified" style="shape=note;whiteSpace=wrap;html=1;backgroundOutline=1;darkOpacity=0.05;size=19;fillColor=#ffe6cc;strokeColor=#d79b00;" parent="vdVrn63xV2FAy3u7jHGA-5" vertex="1">
          <mxGeometry x="1683" y="385" width="110" height="69" as="geometry" />
        </mxCell>
        <mxCell id="RH4OCxIJgFXX0cvtrJZS-1" value="&lt;div&gt;&lt;ul&gt;&lt;li&gt;Frequency of delivery.&lt;/li&gt;&lt;li&gt;Frequency of Internal versions that are not promoted to Canary.&lt;/li&gt;&lt;li&gt;Frequency of Canary versions that are not promoted to General Availability.&lt;/li&gt;&lt;li&gt;Etc.&lt;/li&gt;&lt;/ul&gt;&lt;/div&gt;" style="shape=note;whiteSpace=wrap;html=1;backgroundOutline=1;darkOpacity=0.05;size=19;fillColor=#f5f5f5;strokeColor=#666666;fontColor=#333333;dashed=1;spacing=2;spacingRight=15;spacingLeft=5;align=left;" vertex="1" parent="vdVrn63xV2FAy3u7jHGA-5">
          <mxGeometry x="286" y="242" width="294.5" height="95" as="geometry" />
        </mxCell>
        <mxCell id="RH4OCxIJgFXX0cvtrJZS-2" style="edgeStyle=none;shape=connector;rounded=0;orthogonalLoop=1;jettySize=auto;html=1;labelBackgroundColor=default;strokeColor=#666666;align=center;verticalAlign=middle;fontFamily=Helvetica;fontSize=11;fontColor=default;endArrow=classic;fillColor=#f5f5f5;dashed=1;" edge="1" parent="vdVrn63xV2FAy3u7jHGA-5" source="RH4OCxIJgFXX0cvtrJZS-1" target="vdVrn63xV2FAy3u7jHGA-37">
          <mxGeometry relative="1" as="geometry">
            <mxPoint x="593" y="389" as="sourcePoint" />
            <mxPoint x="711" y="264" as="targetPoint" />
          </mxGeometry>
        </mxCell>
        <object placeholders="1" c4Name="Product Version" c4Type="ContainerScopeBoundary" c4Application="Context" label="&lt;font style=&quot;font-size: 16px&quot;&gt;&lt;b&gt;&lt;div style=&quot;text-align: left&quot;&gt;%c4Name%&lt;/div&gt;&lt;/b&gt;&lt;/font&gt;&lt;div style=&quot;text-align: left&quot;&gt;[%c4Application%]&lt;/div&gt;" id="g4QO1aUx-23dCO6SrilW-1">
          <mxCell style="rounded=1;fontSize=11;whiteSpace=wrap;html=1;dashed=1;arcSize=20;fillColor=none;strokeColor=#666666;fontColor=#333333;labelBackgroundColor=none;align=left;verticalAlign=bottom;labelBorderColor=none;spacingTop=0;spacing=10;dashPattern=8 4;metaEdit=1;rotatable=0;perimeter=rectanglePerimeter;noLabel=0;labelPadding=0;allowArrows=0;connectable=0;expand=0;recursiveResize=0;editable=1;pointerEvents=0;absoluteArcSize=1;points=[[0.25,0,0],[0.5,0,0],[0.75,0,0],[1,0.25,0],[1,0.5,0],[1,0.75,0],[0.75,1,0],[0.5,1,0],[0.25,1,0],[0,0.75,0],[0,0.5,0],[0,0.25,0]];" vertex="1" parent="vdVrn63xV2FAy3u7jHGA-5">
            <mxGeometry x="615" y="45.5" width="427" height="154.5" as="geometry" />
          </mxCell>
        </object>
        <mxCell id="vdVrn63xV2FAy3u7jHGA-40" style="edgeStyle=none;shape=connector;rounded=0;orthogonalLoop=1;jettySize=auto;html=1;labelBackgroundColor=default;strokeColor=default;align=center;verticalAlign=middle;fontFamily=Helvetica;fontSize=11;fontColor=default;endArrow=classic;" parent="vdVrn63xV2FAy3u7jHGA-5" source="vdVrn63xV2FAy3u7jHGA-15" target="vdVrn63xV2FAy3u7jHGA-37" edge="1">
          <mxGeometry relative="1" as="geometry" />
        </mxCell>
        <object placeholders="1" c4Name="Stakeholder Notification" c4Type="ContainerScopeBoundary" c4Application="Context" label="&lt;font style=&quot;font-size: 16px&quot;&gt;&lt;b&gt;&lt;div style=&quot;text-align: left&quot;&gt;%c4Name%&lt;/div&gt;&lt;/b&gt;&lt;/font&gt;&lt;div style=&quot;text-align: left&quot;&gt;[%c4Application%]&lt;/div&gt;" id="g4QO1aUx-23dCO6SrilW-4">
          <mxCell style="rounded=1;fontSize=11;whiteSpace=wrap;html=1;dashed=1;arcSize=20;fillColor=none;strokeColor=#666666;fontColor=#333333;labelBackgroundColor=none;align=left;verticalAlign=bottom;labelBorderColor=none;spacingTop=0;spacing=10;dashPattern=8 4;metaEdit=1;rotatable=0;perimeter=rectanglePerimeter;noLabel=0;labelPadding=0;allowArrows=0;connectable=0;expand=0;recursiveResize=0;editable=1;pointerEvents=0;absoluteArcSize=1;points=[[0.25,0,0],[0.5,0,0],[0.75,0,0],[1,0.25,0],[1,0.5,0],[1,0.75,0],[0.75,1,0],[0.5,1,0],[0.25,1,0],[0,0.75,0],[0,0.5,0],[0,0.25,0]];" vertex="1" parent="vdVrn63xV2FAy3u7jHGA-5">
            <mxGeometry x="670" y="211.5" width="301" height="162" as="geometry" />
          </mxCell>
        </object>
        <object placeholders="1" c4Name="Deployment" c4Type="ContainerScopeBoundary" c4Application="Context" label="&lt;font style=&quot;font-size: 16px&quot;&gt;&lt;b&gt;&lt;div style=&quot;text-align: left&quot;&gt;%c4Name%&lt;/div&gt;&lt;/b&gt;&lt;/font&gt;&lt;div style=&quot;text-align: left&quot;&gt;[%c4Application%]&lt;/div&gt;" id="g4QO1aUx-23dCO6SrilW-5">
          <mxCell style="rounded=1;fontSize=11;whiteSpace=wrap;html=1;dashed=1;arcSize=20;fillColor=none;strokeColor=#666666;fontColor=#333333;labelBackgroundColor=none;align=left;verticalAlign=bottom;labelBorderColor=none;spacingTop=0;spacing=10;dashPattern=8 4;metaEdit=1;rotatable=0;perimeter=rectanglePerimeter;noLabel=0;labelPadding=0;allowArrows=0;connectable=0;expand=0;recursiveResize=0;editable=1;pointerEvents=0;absoluteArcSize=1;points=[[0.25,0,0],[0.5,0,0],[0.75,0,0],[1,0.25,0],[1,0.5,0],[1,0.75,0],[0.75,1,0],[0.5,1,0],[0.25,1,0],[0,0.75,0],[0,0.5,0],[0,0.25,0]];" vertex="1" parent="vdVrn63xV2FAy3u7jHGA-5">
            <mxGeometry x="1075" y="119" width="276" height="418" as="geometry" />
          </mxCell>
        </object>
        <mxCell id="vdVrn63xV2FAy3u7jHGA-51" value="Customer Requested Released Versions" style="shape=note;whiteSpace=wrap;html=1;backgroundOutline=1;darkOpacity=0.05;size=19;fillColor=#ffe6cc;strokeColor=#d79b00;" parent="vdVrn63xV2FAy3u7jHGA-5" vertex="1">
          <mxGeometry x="1086" y="132" width="110" height="69" as="geometry" />
        </mxCell>
        <mxCell id="vdVrn63xV2FAy3u7jHGA-55" style="edgeStyle=none;shape=connector;rounded=0;orthogonalLoop=1;jettySize=auto;html=1;labelBackgroundColor=default;strokeColor=default;align=center;verticalAlign=middle;fontFamily=Helvetica;fontSize=11;fontColor=default;endArrow=classic;" parent="vdVrn63xV2FAy3u7jHGA-5" source="vdVrn63xV2FAy3u7jHGA-52" target="vdVrn63xV2FAy3u7jHGA-51" edge="1">
          <mxGeometry relative="1" as="geometry" />
        </mxCell>
        <mxCell id="vdVrn63xV2FAy3u7jHGA-52" value="Request Released Versions" style="shape=note;whiteSpace=wrap;html=1;backgroundOutline=1;darkOpacity=0.05;size=19;fillColor=#dae8fc;strokeColor=#6c8ebf;" parent="vdVrn63xV2FAy3u7jHGA-5" vertex="1">
          <mxGeometry x="1230" y="132" width="110" height="69" as="geometry" />
        </mxCell>
        <mxCell id="vdVrn63xV2FAy3u7jHGA-75" style="edgeStyle=none;shape=connector;rounded=0;orthogonalLoop=1;jettySize=auto;html=1;labelBackgroundColor=default;strokeColor=default;align=center;verticalAlign=middle;fontFamily=Helvetica;fontSize=11;fontColor=default;endArrow=classic;" parent="vdVrn63xV2FAy3u7jHGA-5" source="vdVrn63xV2FAy3u7jHGA-53" target="vdVrn63xV2FAy3u7jHGA-73" edge="1">
          <mxGeometry relative="1" as="geometry" />
        </mxCell>
        <mxCell id="vdVrn63xV2FAy3u7jHGA-53" value="Customer Requested Download" style="shape=note;whiteSpace=wrap;html=1;backgroundOutline=1;darkOpacity=0.05;size=19;fillColor=#ffe6cc;strokeColor=#d79b00;" parent="vdVrn63xV2FAy3u7jHGA-5" vertex="1">
          <mxGeometry x="1086" y="213" width="110" height="69" as="geometry" />
        </mxCell>
        <mxCell id="vdVrn63xV2FAy3u7jHGA-56" style="edgeStyle=none;shape=connector;rounded=0;orthogonalLoop=1;jettySize=auto;html=1;labelBackgroundColor=default;strokeColor=default;align=center;verticalAlign=middle;fontFamily=Helvetica;fontSize=11;fontColor=default;endArrow=classic;" parent="vdVrn63xV2FAy3u7jHGA-5" source="vdVrn63xV2FAy3u7jHGA-54" target="vdVrn63xV2FAy3u7jHGA-53" edge="1">
          <mxGeometry relative="1" as="geometry" />
        </mxCell>
        <mxCell id="vdVrn63xV2FAy3u7jHGA-54" value="Request Download" style="shape=note;whiteSpace=wrap;html=1;backgroundOutline=1;darkOpacity=0.05;size=19;fillColor=#dae8fc;strokeColor=#6c8ebf;" parent="vdVrn63xV2FAy3u7jHGA-5" vertex="1">
          <mxGeometry x="1230" y="213" width="110" height="69" as="geometry" />
        </mxCell>
        <mxCell id="vdVrn63xV2FAy3u7jHGA-76" style="edgeStyle=none;shape=connector;rounded=0;orthogonalLoop=1;jettySize=auto;html=1;labelBackgroundColor=default;strokeColor=default;align=center;verticalAlign=middle;fontFamily=Helvetica;fontSize=11;fontColor=default;endArrow=classic;" parent="vdVrn63xV2FAy3u7jHGA-5" source="vdVrn63xV2FAy3u7jHGA-73" target="vdVrn63xV2FAy3u7jHGA-74" edge="1">
          <mxGeometry relative="1" as="geometry" />
        </mxCell>
        <mxCell id="vdVrn63xV2FAy3u7jHGA-73" value="Customer&lt;br&gt;Deployment Successful" style="shape=note;whiteSpace=wrap;html=1;backgroundOutline=1;darkOpacity=0.05;size=19;fillColor=#ffe6cc;strokeColor=#d79b00;" parent="vdVrn63xV2FAy3u7jHGA-5" vertex="1">
          <mxGeometry x="1086" y="308" width="110" height="69" as="geometry" />
        </mxCell>
        <mxCell id="vdVrn63xV2FAy3u7jHGA-74" value="Customer&lt;br&gt;Deployment&lt;br&gt;Failed" style="shape=note;whiteSpace=wrap;html=1;backgroundOutline=1;darkOpacity=0.05;size=19;fillColor=#ffe6cc;strokeColor=#d79b00;" parent="vdVrn63xV2FAy3u7jHGA-5" vertex="1">
          <mxGeometry x="1086" y="406" width="110" height="69" as="geometry" />
        </mxCell>
        <mxCell id="g4QO1aUx-23dCO6SrilW-7" value="Release&lt;br&gt;Stakeholder" style="shape=umlActor;verticalLabelPosition=bottom;verticalAlign=top;html=1;outlineConnect=0;" vertex="1" parent="vdVrn63xV2FAy3u7jHGA-5">
          <mxGeometry x="524" y="373.5" width="30" height="60" as="geometry" />
        </mxCell>
        <mxCell id="vdVrn63xV2FAy3u7jHGA-39" style="edgeStyle=none;shape=connector;rounded=0;orthogonalLoop=1;jettySize=auto;html=1;labelBackgroundColor=default;strokeColor=#666666;align=center;verticalAlign=middle;fontFamily=Helvetica;fontSize=11;fontColor=default;endArrow=classic;fillColor=#f5f5f5;dashed=1;" parent="1" source="vdVrn63xV2FAy3u7jHGA-63" target="vdVrn63xV2FAy3u7jHGA-34" edge="1">
          <mxGeometry relative="1" as="geometry">
            <mxPoint x="834.5" y="-41" as="sourcePoint" />
          </mxGeometry>
        </mxCell>
        <mxCell id="vdVrn63xV2FAy3u7jHGA-50" value="Legend" style="swimlane;whiteSpace=wrap;html=1;fontFamily=Helvetica;fontSize=11;fontColor=default;strokeColor=#B3B3B3;" parent="1" vertex="1">
          <mxGeometry x="-80" y="-141" width="289" height="135" as="geometry" />
        </mxCell>
        <mxCell id="vdVrn63xV2FAy3u7jHGA-7" value="Commands" style="shape=note;whiteSpace=wrap;html=1;backgroundOutline=1;darkOpacity=0.05;size=19;fillColor=#dae8fc;strokeColor=#6c8ebf;" parent="vdVrn63xV2FAy3u7jHGA-50" vertex="1">
          <mxGeometry x="151" y="40" width="110" height="69" as="geometry" />
        </mxCell>
        <mxCell id="vdVrn63xV2FAy3u7jHGA-6" value="Domain&lt;br&gt;Events" style="shape=note;whiteSpace=wrap;html=1;backgroundOutline=1;darkOpacity=0.05;size=19;fillColor=#ffe6cc;strokeColor=#d79b00;" parent="vdVrn63xV2FAy3u7jHGA-50" vertex="1">
          <mxGeometry x="20" y="40" width="110" height="69" as="geometry" />
        </mxCell>
        <mxCell id="vdVrn63xV2FAy3u7jHGA-63" value="&lt;ul&gt;&lt;li&gt;Internal&lt;/li&gt;&lt;li&gt;&lt;span style=&quot;background-color: initial;&quot;&gt;Canary&lt;/span&gt;&lt;/li&gt;&lt;li&gt;&lt;span style=&quot;background-color: initial;&quot;&gt;General Availability&lt;/span&gt;&lt;/li&gt;&lt;li&gt;Revoked&lt;/li&gt;&lt;li&gt;Deprecated&lt;/li&gt;&lt;/ul&gt;" style="shape=note;whiteSpace=wrap;html=1;backgroundOutline=1;darkOpacity=0.05;size=19;fillColor=#f5f5f5;strokeColor=#666666;fontColor=#333333;dashed=1;spacing=2;spacingRight=15;spacingLeft=5;align=left;" parent="1" vertex="1">
          <mxGeometry x="869" y="-142" width="193" height="101.5" as="geometry" />
        </mxCell>
        <mxCell id="7qKv16c4tN6IO04OzKqd-3" style="rounded=0;orthogonalLoop=1;jettySize=auto;html=1;dashed=1;fillColor=#f5f5f5;strokeColor=#666666;" parent="1" source="7qKv16c4tN6IO04OzKqd-2" target="vdVrn63xV2FAy3u7jHGA-54" edge="1">
          <mxGeometry relative="1" as="geometry" />
        </mxCell>
        <mxCell id="7qKv16c4tN6IO04OzKqd-2" value="Generate statistics about download and installation success and fails." style="shape=note;whiteSpace=wrap;html=1;backgroundOutline=1;darkOpacity=0.05;size=19;fillColor=#f5f5f5;strokeColor=#666666;fontColor=#333333;dashed=1;spacing=2;spacingRight=15;spacingLeft=5;" parent="1" vertex="1">
          <mxGeometry x="1241" y="610" width="189" height="66" as="geometry" />
        </mxCell>
        <mxCell id="7qKv16c4tN6IO04OzKqd-4" style="rounded=0;orthogonalLoop=1;jettySize=auto;html=1;entryX=0;entryY=0;entryDx=110;entryDy=44;entryPerimeter=0;dashed=1;fillColor=#f5f5f5;strokeColor=#666666;" parent="1" source="7qKv16c4tN6IO04OzKqd-2" target="vdVrn63xV2FAy3u7jHGA-73" edge="1">
          <mxGeometry relative="1" as="geometry" />
        </mxCell>
        <mxCell id="7qKv16c4tN6IO04OzKqd-5" style="rounded=0;orthogonalLoop=1;jettySize=auto;html=1;entryX=0;entryY=0;entryDx=110;entryDy=44;entryPerimeter=0;dashed=1;fillColor=#f5f5f5;strokeColor=#666666;" parent="1" source="7qKv16c4tN6IO04OzKqd-2" target="vdVrn63xV2FAy3u7jHGA-74" edge="1">
          <mxGeometry relative="1" as="geometry" />
        </mxCell>
      </root>
    </mxGraphModel>
  </diagram>
  <diagram id="j7EpRXvFiZ59s9csTrXY" name="System Context">
    <mxGraphModel dx="1830" dy="1026" grid="0" gridSize="10" guides="1" tooltips="1" connect="1" arrows="1" fold="1" page="0" pageScale="1" pageWidth="850" pageHeight="1100" math="0" shadow="0">
      <root>
        <mxCell id="0" />
        <mxCell id="1" parent="0" />
        <object placeholders="1" c4Name="Release Manager Software Solution" c4Type="SystemScopeBoundary" c4Application="System Context" label="&lt;font style=&quot;font-size: 16px&quot;&gt;&lt;b&gt;&lt;div style=&quot;text-align: left&quot;&gt;%c4Name%&lt;/div&gt;&lt;/b&gt;&lt;/font&gt;&lt;div style=&quot;text-align: left&quot;&gt;[%c4Application%]&lt;/div&gt;" id="3-xWxj8kY5mx91SlUCg5-22">
          <mxCell style="rounded=1;fontSize=11;whiteSpace=wrap;html=1;dashed=1;arcSize=20;fillColor=none;strokeColor=#666666;fontColor=#333333;labelBackgroundColor=none;align=left;verticalAlign=bottom;labelBorderColor=none;spacingTop=0;spacing=10;dashPattern=8 4;metaEdit=1;rotatable=0;perimeter=rectanglePerimeter;noLabel=0;labelPadding=0;allowArrows=0;connectable=0;expand=0;recursiveResize=0;editable=1;pointerEvents=0;absoluteArcSize=1;points=[[0.25,0,0],[0.5,0,0],[0.75,0,0],[1,0.25,0],[1,0.5,0],[1,0.75,0],[0.75,1,0],[0.5,1,0],[0.25,1,0],[0,0.75,0],[0,0.5,0],[0,0.25,0]];" vertex="1" parent="1">
            <mxGeometry x="-123" y="-204" width="1051" height="828" as="geometry" />
          </mxCell>
        </object>
        <object placeholders="1" c4Type="Relationship" c4Description="Merge request" label="&lt;div style=&quot;text-align: left&quot;&gt;&lt;div style=&quot;text-align: center&quot;&gt;&lt;b&gt;%c4Description%&lt;/b&gt;&lt;/div&gt;" id="z9D2fOgMpviWhSFQ2ser-5">
          <mxCell style="endArrow=blockThin;html=1;fontSize=10;fontColor=#404040;strokeWidth=1;endFill=1;strokeColor=#828282;elbow=vertical;metaEdit=1;endSize=14;startSize=14;jumpStyle=arc;jumpSize=16;rounded=0;" edge="1" parent="1" source="z9D2fOgMpviWhSFQ2ser-38" target="z9D2fOgMpviWhSFQ2ser-19">
            <mxGeometry width="240" relative="1" as="geometry">
              <mxPoint x="-372" y="594.1428571428569" as="sourcePoint" />
              <mxPoint x="-161" y="156" as="targetPoint" />
            </mxGeometry>
          </mxCell>
        </object>
        <object placeholders="1" c4Type="Relationship" c4Description="Authenticate" label="&lt;div style=&quot;text-align: left&quot;&gt;&lt;div style=&quot;text-align: center&quot;&gt;&lt;b&gt;%c4Description%&lt;/b&gt;&lt;/div&gt;" id="z9D2fOgMpviWhSFQ2ser-6">
          <mxCell style="endArrow=blockThin;html=1;fontSize=10;fontColor=#404040;strokeWidth=1;endFill=1;strokeColor=#828282;elbow=vertical;metaEdit=1;endSize=14;startSize=14;jumpStyle=arc;jumpSize=16;rounded=0;" edge="1" parent="1" target="z9D2fOgMpviWhSFQ2ser-3">
            <mxGeometry width="240" relative="1" as="geometry">
              <mxPoint x="704" y="440.15999999999985" as="sourcePoint" />
              <mxPoint x="451" y="261" as="targetPoint" />
            </mxGeometry>
          </mxCell>
        </object>
        <object placeholders="1" c4Type="Relationship" c4Description="Validate token" label="&lt;div style=&quot;text-align: left&quot;&gt;&lt;div style=&quot;text-align: center&quot;&gt;&lt;b&gt;%c4Description%&lt;/b&gt;&lt;/div&gt;" id="z9D2fOgMpviWhSFQ2ser-7">
          <mxCell style="endArrow=blockThin;html=1;fontSize=10;fontColor=#404040;strokeWidth=1;endFill=1;strokeColor=#828282;elbow=vertical;metaEdit=1;endSize=14;startSize=14;jumpStyle=arc;jumpSize=16;rounded=0;" edge="1" parent="1" source="z9D2fOgMpviWhSFQ2ser-2">
            <mxGeometry width="240" relative="1" as="geometry">
              <mxPoint x="571" y="201" as="sourcePoint" />
              <mxPoint x="898.7260273972606" y="389" as="targetPoint" />
            </mxGeometry>
          </mxCell>
        </object>
        <object placeholders="1" c4Type="Relationship" c4Description="Git Hooks" label="&lt;div style=&quot;text-align: left&quot;&gt;&lt;div style=&quot;text-align: center&quot;&gt;&lt;b&gt;%c4Description%&lt;/b&gt;&lt;/div&gt;" id="z9D2fOgMpviWhSFQ2ser-8">
          <mxCell style="endArrow=blockThin;html=1;fontSize=10;fontColor=#404040;strokeWidth=1;endFill=1;strokeColor=#828282;elbow=vertical;metaEdit=1;endSize=14;startSize=14;jumpStyle=arc;jumpSize=16;rounded=0;" edge="1" parent="1" source="z9D2fOgMpviWhSFQ2ser-20" target="z9D2fOgMpviWhSFQ2ser-19">
            <mxGeometry width="240" relative="1" as="geometry">
              <mxPoint x="37" y="284" as="sourcePoint" />
              <mxPoint x="183" y="126" as="targetPoint" />
            </mxGeometry>
          </mxCell>
        </object>
        <object placeholders="1" c4Type="Relationship" c4Technology="JSON/HTTP" c4Description="Makes API calls" label="&lt;div style=&quot;text-align: left&quot;&gt;&lt;div style=&quot;text-align: center&quot;&gt;&lt;b&gt;%c4Description%&lt;/b&gt;&lt;/div&gt;&lt;div style=&quot;text-align: center&quot;&gt;[%c4Technology%]&lt;/div&gt;&lt;/div&gt;" id="z9D2fOgMpviWhSFQ2ser-9">
          <mxCell style="endArrow=blockThin;html=1;fontSize=10;fontColor=#404040;strokeWidth=1;endFill=1;strokeColor=#828282;elbow=vertical;metaEdit=1;endSize=14;startSize=14;jumpStyle=arc;jumpSize=16;rounded=0;" edge="1" parent="1" target="z9D2fOgMpviWhSFQ2ser-2">
            <mxGeometry x="0.0631" y="4" width="240" relative="1" as="geometry">
              <mxPoint x="629.1456310679614" y="376" as="sourcePoint" />
              <mxPoint x="775" y="250" as="targetPoint" />
              <mxPoint as="offset" />
            </mxGeometry>
          </mxCell>
        </object>
        <object placeholders="1" c4Type="Relationship" c4Technology="JSON/HTTP" c4Description="Makes API calls to publish&#xa;new software versions" label="&lt;div style=&quot;text-align: left&quot;&gt;&lt;div style=&quot;text-align: center&quot;&gt;&lt;b&gt;%c4Description%&lt;/b&gt;&lt;/div&gt;&lt;div style=&quot;text-align: center&quot;&gt;[%c4Technology%]&lt;/div&gt;&lt;/div&gt;" id="z9D2fOgMpviWhSFQ2ser-10">
          <mxCell style="endArrow=blockThin;html=1;fontSize=10;fontColor=#404040;strokeWidth=1;endFill=1;strokeColor=#828282;elbow=vertical;metaEdit=1;endSize=14;startSize=14;jumpStyle=arc;jumpSize=16;rounded=0;" edge="1" parent="1" source="z9D2fOgMpviWhSFQ2ser-20" target="z9D2fOgMpviWhSFQ2ser-49">
            <mxGeometry x="-0.4071" y="5" width="240" relative="1" as="geometry">
              <mxPoint x="691" y="263" as="sourcePoint" />
              <mxPoint x="739" y="170" as="targetPoint" />
              <mxPoint as="offset" />
            </mxGeometry>
          </mxCell>
        </object>
        <object placeholders="1" c4Type="Relationship" c4Description=" " label="&lt;div style=&quot;text-align: left&quot;&gt;&lt;div style=&quot;text-align: center&quot;&gt;&lt;b&gt;%c4Description%&lt;/b&gt;&lt;/div&gt;" id="z9D2fOgMpviWhSFQ2ser-15">
          <mxCell style="endArrow=blockThin;html=1;fontSize=10;fontColor=#404040;strokeWidth=1;endFill=1;strokeColor=#828282;elbow=vertical;metaEdit=1;endSize=14;startSize=14;jumpStyle=arc;jumpSize=16;rounded=0;" edge="1" parent="1" target="z9D2fOgMpviWhSFQ2ser-11">
            <mxGeometry width="240" relative="1" as="geometry">
              <mxPoint x="1464" y="456.34328358208904" as="sourcePoint" />
              <mxPoint x="1234" y="390" as="targetPoint" />
            </mxGeometry>
          </mxCell>
        </object>
        <object placeholders="1" c4Type="Relationship" c4Description=" " label="&lt;div style=&quot;text-align: left&quot;&gt;&lt;div style=&quot;text-align: center&quot;&gt;&lt;b&gt;%c4Description%&lt;/b&gt;&lt;/div&gt;" id="z9D2fOgMpviWhSFQ2ser-16">
          <mxCell style="endArrow=blockThin;html=1;fontSize=10;fontColor=#404040;strokeWidth=1;endFill=1;strokeColor=#828282;elbow=vertical;metaEdit=1;endSize=14;startSize=14;jumpStyle=arc;jumpSize=16;rounded=0;" edge="1" parent="1" target="z9D2fOgMpviWhSFQ2ser-12">
            <mxGeometry width="240" relative="1" as="geometry">
              <mxPoint x="1464" y="410.22388059701507" as="sourcePoint" />
              <mxPoint x="1276" y="633" as="targetPoint" />
            </mxGeometry>
          </mxCell>
        </object>
        <object placeholders="1" c4Type="Relationship" c4Description=" " label="&lt;div style=&quot;text-align: left&quot;&gt;&lt;div style=&quot;text-align: center&quot;&gt;&lt;b&gt;%c4Description%&lt;/b&gt;&lt;/div&gt;" id="z9D2fOgMpviWhSFQ2ser-17">
          <mxCell style="endArrow=blockThin;html=1;fontSize=10;fontColor=#404040;strokeWidth=1;endFill=1;strokeColor=#828282;elbow=vertical;metaEdit=1;endSize=14;startSize=14;jumpStyle=arc;jumpSize=16;rounded=0;" edge="1" parent="1" target="z9D2fOgMpviWhSFQ2ser-13">
            <mxGeometry width="240" relative="1" as="geometry">
              <mxPoint x="1459.6834532374114" y="365" as="sourcePoint" />
              <mxPoint x="1336" y="633" as="targetPoint" />
            </mxGeometry>
          </mxCell>
        </object>
        <object placeholders="1" c4Name="SCM" c4Type="Software Configuration Management" c4Description="Git, SVN, Subversion, etc." label="&lt;font style=&quot;font-size: 16px&quot;&gt;&lt;b&gt;%c4Name%&lt;/b&gt;&lt;/font&gt;&lt;div&gt;[%c4Type%]&lt;/div&gt;&lt;br&gt;&lt;div&gt;&lt;font style=&quot;font-size: 11px&quot;&gt;&lt;font color=&quot;#cccccc&quot;&gt;%c4Description%&lt;/font&gt;&lt;/div&gt;" id="z9D2fOgMpviWhSFQ2ser-19">
          <mxCell style="rounded=1;whiteSpace=wrap;html=1;labelBackgroundColor=none;fillColor=#8C8496;fontColor=#ffffff;align=center;arcSize=10;strokeColor=#736782;metaEdit=1;resizable=0;points=[[0.25,0,0],[0.5,0,0],[0.75,0,0],[1,0.25,0],[1,0.5,0],[1,0.75,0],[0.75,1,0],[0.5,1,0],[0.25,1,0],[0,0.75,0],[0,0.5,0],[0,0.25,0]];" vertex="1" parent="1">
            <mxGeometry x="257" y="-133" width="240" height="120" as="geometry" />
          </mxCell>
        </object>
        <object placeholders="1" c4Name="CI/CD Tool" c4Type="CI/CD" c4Description="Jenkins, Gitlab-CI, Github-Actions, etc." label="&lt;font style=&quot;font-size: 16px&quot;&gt;&lt;b&gt;%c4Name%&lt;/b&gt;&lt;/font&gt;&lt;div&gt;[%c4Type%]&lt;/div&gt;&lt;br&gt;&lt;div&gt;&lt;font style=&quot;font-size: 11px&quot;&gt;&lt;font color=&quot;#cccccc&quot;&gt;%c4Description%&lt;/font&gt;&lt;/div&gt;" id="z9D2fOgMpviWhSFQ2ser-20">
          <mxCell style="rounded=1;whiteSpace=wrap;html=1;labelBackgroundColor=none;fillColor=#8C8496;fontColor=#ffffff;align=center;arcSize=10;strokeColor=#736782;metaEdit=1;resizable=0;points=[[0.25,0,0],[0.5,0,0],[0.75,0,0],[1,0.25,0],[1,0.5,0],[1,0.75,0],[0.75,1,0],[0.5,1,0],[0.25,1,0],[0,0.75,0],[0,0.5,0],[0,0.25,0]];" vertex="1" parent="1">
            <mxGeometry x="619" y="-131" width="240" height="120" as="geometry" />
          </mxCell>
        </object>
        <object placeholders="1" c4Type="Relationship" c4Technology="Web Application" c4Description="Canary Release Management" label="&lt;div style=&quot;text-align: left&quot;&gt;&lt;div style=&quot;text-align: center&quot;&gt;&lt;b&gt;%c4Description%&lt;/b&gt;&lt;/div&gt;&lt;div style=&quot;text-align: center&quot;&gt;[%c4Technology%]&lt;/div&gt;&lt;/div&gt;" id="z9D2fOgMpviWhSFQ2ser-21">
          <mxCell style="endArrow=blockThin;html=1;fontSize=10;fontColor=#404040;strokeWidth=1;endFill=1;strokeColor=#828282;elbow=vertical;metaEdit=1;endSize=14;startSize=14;jumpStyle=arc;jumpSize=16;rounded=0;exitX=1;exitY=0.5;exitDx=0;exitDy=0;exitPerimeter=0;" edge="1" parent="1" source="z9D2fOgMpviWhSFQ2ser-39" target="z9D2fOgMpviWhSFQ2ser-49">
            <mxGeometry width="240" relative="1" as="geometry">
              <mxPoint x="336" y="22.537993920972895" as="sourcePoint" />
              <mxPoint x="464" y="480.6739130434785" as="targetPoint" />
            </mxGeometry>
          </mxCell>
        </object>
        <object placeholders="1" c4Type="Relationship" c4Technology="Application" c4Description="Request to&#xa;Update Version" label="&lt;div style=&quot;text-align: left&quot;&gt;&lt;div style=&quot;text-align: center&quot;&gt;&lt;b&gt;%c4Description%&lt;/b&gt;&lt;/div&gt;&lt;div style=&quot;text-align: center&quot;&gt;[%c4Technology%]&lt;/div&gt;&lt;/div&gt;" id="z9D2fOgMpviWhSFQ2ser-22">
          <mxCell style="endArrow=blockThin;html=1;fontSize=10;fontColor=#404040;strokeWidth=1;endFill=1;strokeColor=#828282;elbow=vertical;metaEdit=1;endSize=14;startSize=14;jumpStyle=arc;jumpSize=16;rounded=0;" edge="1" parent="1" source="z9D2fOgMpviWhSFQ2ser-40" target="z9D2fOgMpviWhSFQ2ser-23">
            <mxGeometry width="240" relative="1" as="geometry">
              <mxPoint x="295" y="982" as="sourcePoint" />
              <mxPoint x="1207" y="764" as="targetPoint" />
            </mxGeometry>
          </mxCell>
        </object>
        <object placeholders="1" c4Name="Software to be upgraded" c4Type="Software System" c4Description="" label="&lt;font style=&quot;font-size: 16px&quot;&gt;&lt;b&gt;%c4Name%&lt;/b&gt;&lt;/font&gt;&lt;div&gt;[%c4Type%]&lt;/div&gt;&lt;br&gt;&lt;div&gt;&lt;font style=&quot;font-size: 11px&quot;&gt;&lt;font color=&quot;#cccccc&quot;&gt;%c4Description%&lt;/font&gt;&lt;/div&gt;" id="z9D2fOgMpviWhSFQ2ser-23">
          <mxCell style="rounded=1;whiteSpace=wrap;html=1;labelBackgroundColor=none;fillColor=#8C8496;fontColor=#ffffff;align=center;arcSize=10;strokeColor=#736782;metaEdit=1;resizable=0;points=[[0.25,0,0],[0.5,0,0],[0.75,0,0],[1,0.25,0],[1,0.5,0],[1,0.75,0],[0.75,1,0],[0.5,1,0],[0.25,1,0],[0,0.75,0],[0,0.5,0],[0,0.25,0]];" vertex="1" parent="1">
            <mxGeometry x="1043" y="143" width="240" height="120" as="geometry" />
          </mxCell>
        </object>
        <object placeholders="1" c4Type="Relationship" c4Technology="Application" c4Description="Request Update Version" label="&lt;div style=&quot;text-align: left&quot;&gt;&lt;div style=&quot;text-align: center&quot;&gt;&lt;b&gt;%c4Description%&lt;/b&gt;&lt;/div&gt;&lt;div style=&quot;text-align: center&quot;&gt;[%c4Technology%]&lt;/div&gt;&lt;/div&gt;" id="z9D2fOgMpviWhSFQ2ser-24">
          <mxCell style="endArrow=blockThin;html=1;fontSize=10;fontColor=#404040;strokeWidth=1;endFill=1;strokeColor=#828282;elbow=vertical;metaEdit=1;endSize=14;startSize=14;jumpStyle=arc;jumpSize=16;rounded=0;exitX=0;exitY=0.25;exitDx=0;exitDy=0;exitPerimeter=0;entryX=1;entryY=0.25;entryDx=0;entryDy=0;entryPerimeter=0;" edge="1" parent="1" source="z9D2fOgMpviWhSFQ2ser-23" target="z9D2fOgMpviWhSFQ2ser-49">
            <mxGeometry width="240" relative="1" as="geometry">
              <mxPoint x="-147" y="482" as="sourcePoint" />
              <mxPoint x="859" y="200" as="targetPoint" />
            </mxGeometry>
          </mxCell>
        </object>
        <object placeholders="1" c4Type="Relationship" c4Technology="JSON/HTTP" c4Description="Push/Pull Files" label="&lt;div style=&quot;text-align: left&quot;&gt;&lt;div style=&quot;text-align: center&quot;&gt;&lt;b&gt;%c4Description%&lt;/b&gt;&lt;/div&gt;&lt;div style=&quot;text-align: center&quot;&gt;[%c4Technology%]&lt;/div&gt;&lt;/div&gt;" id="z9D2fOgMpviWhSFQ2ser-25">
          <mxCell style="endArrow=blockThin;html=1;fontSize=10;fontColor=#404040;strokeWidth=1;endFill=1;strokeColor=#828282;elbow=vertical;metaEdit=1;endSize=14;startSize=14;jumpStyle=arc;jumpSize=16;rounded=0;" edge="1" parent="1" target="z9D2fOgMpviWhSFQ2ser-14">
            <mxGeometry x="0.002" width="240" relative="1" as="geometry">
              <mxPoint x="859" y="268.677685950413" as="sourcePoint" />
              <mxPoint x="669" y="524" as="targetPoint" />
              <mxPoint as="offset" />
            </mxGeometry>
          </mxCell>
        </object>
        <object placeholders="1" c4Type="Relationship" c4Technology="Hibernate" c4Description="CRUD Operations" label="&lt;div style=&quot;text-align: left&quot;&gt;&lt;div style=&quot;text-align: center&quot;&gt;&lt;b&gt;%c4Description%&lt;/b&gt;&lt;/div&gt;&lt;div style=&quot;text-align: center&quot;&gt;[%c4Technology%]&lt;/div&gt;&lt;/div&gt;" id="z9D2fOgMpviWhSFQ2ser-26">
          <mxCell style="endArrow=blockThin;html=1;fontSize=10;fontColor=#404040;strokeWidth=1;endFill=1;strokeColor=#828282;elbow=vertical;metaEdit=1;endSize=14;startSize=14;jumpStyle=arc;jumpSize=16;rounded=0;" edge="1" parent="1" target="z9D2fOgMpviWhSFQ2ser-4">
            <mxGeometry x="-0.0015" y="2" width="240" relative="1" as="geometry">
              <mxPoint x="859" y="233.1735537190084" as="sourcePoint" />
              <mxPoint x="1234" y="417" as="targetPoint" />
              <mxPoint as="offset" />
            </mxGeometry>
          </mxCell>
        </object>
        <object placeholders="1" c4Type="Relationship" c4Technology="SMTP" c4Description="Send email&#xa;notification" label="&lt;div style=&quot;text-align: left&quot;&gt;&lt;div style=&quot;text-align: center&quot;&gt;&lt;b&gt;%c4Description%&lt;/b&gt;&lt;/div&gt;&lt;div style=&quot;text-align: center&quot;&gt;[%c4Technology%]&lt;/div&gt;&lt;/div&gt;" id="z9D2fOgMpviWhSFQ2ser-27">
          <mxCell style="endArrow=blockThin;html=1;fontSize=10;fontColor=#404040;strokeWidth=1;endFill=1;strokeColor=#828282;elbow=vertical;metaEdit=1;endSize=14;startSize=14;jumpStyle=arc;jumpSize=16;rounded=0;" edge="1" parent="1" source="z9D2fOgMpviWhSFQ2ser-49" target="z9D2fOgMpviWhSFQ2ser-28">
            <mxGeometry width="240" relative="1" as="geometry">
              <mxPoint x="619" y="230" as="sourcePoint" />
              <mxPoint x="179" y="297" as="targetPoint" />
            </mxGeometry>
          </mxCell>
        </object>
        <object placeholders="1" c4Name="Notification Server" c4Type="Software System" c4Description="Email, Slack, Teams, etc." label="&lt;font style=&quot;font-size: 16px&quot;&gt;&lt;b&gt;%c4Name%&lt;/b&gt;&lt;/font&gt;&lt;div&gt;[%c4Type%]&lt;/div&gt;&lt;br&gt;&lt;div&gt;&lt;font style=&quot;font-size: 11px&quot;&gt;&lt;font color=&quot;#cccccc&quot;&gt;%c4Description%&lt;/font&gt;&lt;/div&gt;" id="z9D2fOgMpviWhSFQ2ser-28">
          <mxCell style="rounded=1;whiteSpace=wrap;html=1;labelBackgroundColor=none;fillColor=#8C8496;fontColor=#ffffff;align=center;arcSize=10;strokeColor=#736782;metaEdit=1;resizable=0;points=[[0.25,0,0],[0.5,0,0],[0.75,0,0],[1,0.25,0],[1,0.5,0],[1,0.75,0],[0.75,1,0],[0.5,1,0],[0.25,1,0],[0,0.75,0],[0,0.5,0],[0,0.25,0]];" vertex="1" parent="1">
            <mxGeometry x="131" y="170" width="240" height="120" as="geometry" />
          </mxCell>
        </object>
        <mxCell id="z9D2fOgMpviWhSFQ2ser-29" value="" style="edgeStyle=orthogonalEdgeStyle;rounded=0;orthogonalLoop=1;jettySize=auto;html=1;" edge="1" parent="1">
          <mxGeometry relative="1" as="geometry">
            <mxPoint x="1611.5555555555557" y="216" as="sourcePoint" />
            <mxPoint x="1612" y="216" as="targetPoint" />
          </mxGeometry>
        </mxCell>
        <object placeholders="1" c4Type="Relationship" c4Description=" " label="&lt;div style=&quot;text-align: left&quot;&gt;&lt;div style=&quot;text-align: center&quot;&gt;&lt;b&gt;%c4Description%&lt;/b&gt;&lt;/div&gt;" id="z9D2fOgMpviWhSFQ2ser-32">
          <mxCell style="endArrow=blockThin;html=1;fontSize=10;fontColor=#404040;strokeWidth=1;endFill=1;strokeColor=#828282;elbow=vertical;metaEdit=1;endSize=14;startSize=14;jumpStyle=arc;jumpSize=16;rounded=0;" edge="1" parent="1" target="z9D2fOgMpviWhSFQ2ser-31">
            <mxGeometry width="240" relative="1" as="geometry">
              <mxPoint x="1409.632653061225" y="365" as="sourcePoint" />
              <mxPoint x="1586" y="311" as="targetPoint" />
            </mxGeometry>
          </mxCell>
        </object>
        <object placeholders="1" c4Type="Relationship" c4Technology="Web Application" c4Description="Configure Release Management&#xa;and collect metrics to improve&#xa;continuous delivery" label="&lt;div style=&quot;text-align: left&quot;&gt;&lt;div style=&quot;text-align: center&quot;&gt;&lt;b&gt;%c4Description%&lt;/b&gt;&lt;/div&gt;&lt;div style=&quot;text-align: center&quot;&gt;[%c4Technology%]&lt;/div&gt;&lt;/div&gt;" id="z9D2fOgMpviWhSFQ2ser-33">
          <mxCell style="endArrow=blockThin;html=1;fontSize=10;fontColor=#404040;strokeWidth=1;endFill=1;strokeColor=#828282;elbow=vertical;metaEdit=1;endSize=14;startSize=14;jumpStyle=arc;jumpSize=16;rounded=0;" edge="1" parent="1" source="z9D2fOgMpviWhSFQ2ser-41" target="z9D2fOgMpviWhSFQ2ser-49">
            <mxGeometry x="-0.2751" y="2" width="240" relative="1" as="geometry">
              <mxPoint x="562.9375" y="25" as="sourcePoint" />
              <mxPoint x="697.5968379446649" y="496" as="targetPoint" />
              <mxPoint y="-1" as="offset" />
            </mxGeometry>
          </mxCell>
        </object>
        <object placeholders="1" c4Type="Relationship" c4Description="Validate token" label="&lt;div style=&quot;text-align: left&quot;&gt;&lt;div style=&quot;text-align: center&quot;&gt;&lt;b&gt;%c4Description%&lt;/b&gt;&lt;/div&gt;" id="z9D2fOgMpviWhSFQ2ser-35">
          <mxCell style="endArrow=blockThin;html=1;fontSize=10;fontColor=#404040;strokeWidth=1;endFill=1;strokeColor=#828282;elbow=vertical;metaEdit=1;endSize=14;startSize=14;jumpStyle=arc;jumpSize=16;rounded=0;" edge="1" parent="1" source="z9D2fOgMpviWhSFQ2ser-14">
            <mxGeometry width="240" relative="1" as="geometry">
              <mxPoint x="672" y="404" as="sourcePoint" />
              <mxPoint x="1079" y="441.5194805194801" as="targetPoint" />
            </mxGeometry>
          </mxCell>
        </object>
        <object placeholders="1" c4Name="Customer Context" c4Type="SystemScopeBoundary" c4Application="Customer Environment" label="&lt;font style=&quot;font-size: 16px&quot;&gt;&lt;b&gt;&lt;div style=&quot;text-align: left&quot;&gt;%c4Name%&lt;/div&gt;&lt;/b&gt;&lt;/font&gt;&lt;div style=&quot;text-align: left&quot;&gt;[%c4Application%]&lt;/div&gt;" id="z9D2fOgMpviWhSFQ2ser-36">
          <mxCell style="rounded=1;fontSize=11;whiteSpace=wrap;html=1;dashed=1;arcSize=20;fillColor=none;strokeColor=#666666;fontColor=#333333;labelBackgroundColor=none;align=left;verticalAlign=bottom;labelBorderColor=none;spacingTop=0;spacing=10;dashPattern=8 4;metaEdit=1;rotatable=0;perimeter=rectanglePerimeter;noLabel=0;labelPadding=0;allowArrows=0;connectable=0;expand=0;recursiveResize=0;editable=1;pointerEvents=0;absoluteArcSize=1;points=[[0.25,0,0],[0.5,0,0],[0.75,0,0],[1,0.25,0],[1,0.5,0],[1,0.75,0],[0.75,1,0],[0.5,1,0],[0.25,1,0],[0,0.75,0],[0,0.5,0],[0,0.25,0]];" vertex="1" parent="1">
            <mxGeometry x="962" y="49.5" width="712" height="307" as="geometry" />
          </mxCell>
        </object>
        <object placeholders="1" c4Name="Developer" c4Type="Person" c4Description="" label="&lt;font style=&quot;font-size: 16px&quot;&gt;&lt;b&gt;%c4Name%&lt;/b&gt;&lt;/font&gt;&lt;div&gt;[%c4Type%]&lt;/div&gt;&lt;br&gt;&lt;div&gt;&lt;font style=&quot;font-size: 11px&quot;&gt;&lt;font color=&quot;#cccccc&quot;&gt;%c4Description%&lt;/font&gt;&lt;/div&gt;" id="z9D2fOgMpviWhSFQ2ser-38">
          <mxCell style="html=1;fontSize=11;dashed=0;whiteSpace=wrap;fillColor=#083F75;strokeColor=#06315C;fontColor=#ffffff;shape=mxgraph.c4.person2;align=center;metaEdit=1;points=[[0.5,0,0],[1,0.5,0],[1,0.75,0],[0.75,1,0],[0.5,1,0],[0.25,1,0],[0,0.75,0],[0,0.5,0]];resizable=0;" vertex="1" parent="1">
            <mxGeometry x="-84" y="-163" width="200" height="180" as="geometry" />
          </mxCell>
        </object>
        <object placeholders="1" c4Name="Release Manager" c4Type="Person" c4Description="Perform Canary Release Management" label="&lt;font style=&quot;font-size: 16px&quot;&gt;&lt;b&gt;%c4Name%&lt;/b&gt;&lt;/font&gt;&lt;div&gt;[%c4Type%]&lt;/div&gt;&lt;br&gt;&lt;div&gt;&lt;font style=&quot;font-size: 11px&quot;&gt;&lt;font color=&quot;#cccccc&quot;&gt;%c4Description%&lt;/font&gt;&lt;/div&gt;" id="z9D2fOgMpviWhSFQ2ser-39">
          <mxCell style="html=1;fontSize=11;dashed=0;whiteSpace=wrap;fillColor=#083F75;strokeColor=#06315C;fontColor=#ffffff;shape=mxgraph.c4.person2;align=center;metaEdit=1;points=[[0.5,0,0],[1,0.5,0],[1,0.75,0],[0.75,1,0],[0.5,1,0],[0.25,1,0],[0,0.75,0],[0,0.5,0]];resizable=0;" vertex="1" parent="1">
            <mxGeometry x="334" y="367" width="200" height="180" as="geometry" />
          </mxCell>
        </object>
        <object placeholders="1" c4Name="End User" c4Type="Person" c4Description="Software House User" label="&lt;font style=&quot;font-size: 16px&quot;&gt;&lt;b&gt;%c4Name%&lt;/b&gt;&lt;/font&gt;&lt;div&gt;[%c4Type%]&lt;/div&gt;&lt;br&gt;&lt;div&gt;&lt;font style=&quot;font-size: 11px&quot;&gt;&lt;font color=&quot;#cccccc&quot;&gt;%c4Description%&lt;/font&gt;&lt;/div&gt;" id="z9D2fOgMpviWhSFQ2ser-40">
          <mxCell style="html=1;fontSize=11;dashed=0;whiteSpace=wrap;fillColor=#083F75;strokeColor=#06315C;fontColor=#ffffff;shape=mxgraph.c4.person2;align=center;metaEdit=1;points=[[0.5,0,0],[1,0.5,0],[1,0.75,0],[0.75,1,0],[0.5,1,0],[0.25,1,0],[0,0.75,0],[0,0.5,0]];resizable=0;" vertex="1" parent="1">
            <mxGeometry x="1449" y="105" width="200" height="180" as="geometry" />
          </mxCell>
        </object>
        <object placeholders="1" c4Name="System Administrator" c4Type="Person" c4Description="Perform configuration tasks" label="&lt;font style=&quot;font-size: 16px&quot;&gt;&lt;b&gt;%c4Name%&lt;/b&gt;&lt;/font&gt;&lt;div&gt;[%c4Type%]&lt;/div&gt;&lt;br&gt;&lt;div&gt;&lt;font style=&quot;font-size: 11px&quot;&gt;&lt;font color=&quot;#cccccc&quot;&gt;%c4Description%&lt;/font&gt;&lt;/div&gt;" id="z9D2fOgMpviWhSFQ2ser-41">
          <mxCell style="html=1;fontSize=11;dashed=0;whiteSpace=wrap;fillColor=#083F75;strokeColor=#06315C;fontColor=#ffffff;shape=mxgraph.c4.person2;align=center;metaEdit=1;points=[[0.5,0,0],[1,0.5,0],[1,0.75,0],[0.75,1,0],[0.5,1,0],[0.25,1,0],[0,0.75,0],[0,0.5,0]];resizable=0;" vertex="1" parent="1">
            <mxGeometry x="705" y="403" width="200" height="180" as="geometry" />
          </mxCell>
        </object>
        <object placeholders="1" c4Type="Relationship" c4Technology="HTTP" c4Description="Download Artifact" label="&lt;div style=&quot;text-align: left&quot;&gt;&lt;div style=&quot;text-align: center&quot;&gt;&lt;b&gt;%c4Description%&lt;/b&gt;&lt;/div&gt;&lt;div style=&quot;text-align: center&quot;&gt;[%c4Technology%]&lt;/div&gt;&lt;/div&gt;" id="z9D2fOgMpviWhSFQ2ser-42">
          <mxCell style="endArrow=blockThin;html=1;fontSize=10;fontColor=#404040;strokeWidth=1;endFill=1;strokeColor=#828282;elbow=vertical;metaEdit=1;endSize=14;startSize=14;jumpStyle=arc;jumpSize=16;rounded=0;entryX=1;entryY=0.75;entryDx=0;entryDy=0;entryPerimeter=0;exitX=0;exitY=0.75;exitDx=0;exitDy=0;exitPerimeter=0;" edge="1" parent="1" source="z9D2fOgMpviWhSFQ2ser-23" target="z9D2fOgMpviWhSFQ2ser-49">
            <mxGeometry width="240" relative="1" as="geometry">
              <mxPoint x="1752" y="25" as="sourcePoint" />
              <mxPoint x="1648" y="196.55999999999995" as="targetPoint" />
            </mxGeometry>
          </mxCell>
        </object>
        <object placeholders="1" c4Name="Release Stakeholder" c4Type="Person" c4Description="Perform Canary Release Management" label="&lt;font style=&quot;font-size: 16px&quot;&gt;&lt;b&gt;%c4Name%&lt;/b&gt;&lt;/font&gt;&lt;div&gt;[%c4Type%]&lt;/div&gt;&lt;br&gt;&lt;div&gt;&lt;font style=&quot;font-size: 11px&quot;&gt;&lt;font color=&quot;#cccccc&quot;&gt;%c4Description%&lt;/font&gt;&lt;/div&gt;" id="z9D2fOgMpviWhSFQ2ser-46">
          <mxCell style="html=1;fontSize=11;dashed=0;whiteSpace=wrap;fillColor=#083F75;strokeColor=#06315C;fontColor=#ffffff;shape=mxgraph.c4.person2;align=center;metaEdit=1;points=[[0.5,0,0],[1,0.5,0],[1,0.75,0],[0.75,1,0],[0.5,1,0],[0.25,1,0],[0,0.75,0],[0,0.5,0]];resizable=0;" vertex="1" parent="1">
            <mxGeometry x="-84" y="367" width="200" height="180" as="geometry" />
          </mxCell>
        </object>
        <object placeholders="1" c4Type="Relationship" c4Technology="SMTP, PWN, etc." c4Description="Push notification" label="&lt;div style=&quot;text-align: left&quot;&gt;&lt;div style=&quot;text-align: center&quot;&gt;&lt;b&gt;%c4Description%&lt;/b&gt;&lt;/div&gt;&lt;div style=&quot;text-align: center&quot;&gt;[%c4Technology%]&lt;/div&gt;&lt;/div&gt;" id="z9D2fOgMpviWhSFQ2ser-47">
          <mxCell style="endArrow=blockThin;html=1;fontSize=10;fontColor=#404040;strokeWidth=1;endFill=1;strokeColor=#828282;elbow=vertical;metaEdit=1;endSize=14;startSize=14;jumpStyle=arc;jumpSize=16;rounded=0;entryX=0.5;entryY=0;entryDx=0;entryDy=0;entryPerimeter=0;" edge="1" parent="1" source="z9D2fOgMpviWhSFQ2ser-28" target="z9D2fOgMpviWhSFQ2ser-46">
            <mxGeometry width="240" relative="1" as="geometry">
              <mxPoint x="248" y="300" as="sourcePoint" />
              <mxPoint x="214" y="466" as="targetPoint" />
            </mxGeometry>
          </mxCell>
        </object>
        <object placeholders="1" c4Type="Relationship" c4Technology="SMTP, PWN, etc." c4Description="Push notification" label="&lt;div style=&quot;text-align: left&quot;&gt;&lt;div style=&quot;text-align: center&quot;&gt;&lt;b&gt;%c4Description%&lt;/b&gt;&lt;/div&gt;&lt;div style=&quot;text-align: center&quot;&gt;[%c4Technology%]&lt;/div&gt;&lt;/div&gt;" id="z9D2fOgMpviWhSFQ2ser-48">
          <mxCell style="endArrow=blockThin;html=1;fontSize=10;fontColor=#404040;strokeWidth=1;endFill=1;strokeColor=#828282;elbow=vertical;metaEdit=1;endSize=14;startSize=14;jumpStyle=arc;jumpSize=16;rounded=0;" edge="1" parent="1" source="z9D2fOgMpviWhSFQ2ser-28" target="z9D2fOgMpviWhSFQ2ser-39">
            <mxGeometry width="240" relative="1" as="geometry">
              <mxPoint x="141" y="268" as="sourcePoint" />
              <mxPoint x="22" y="296" as="targetPoint" />
            </mxGeometry>
          </mxCell>
        </object>
        <object placeholders="1" c4Name="Release Manager" c4Type="Software System" c4Description="Release Manager is a tool to fit in management of software release to the market using Canary Release methodology." label="&lt;font style=&quot;font-size: 16px&quot;&gt;&lt;b&gt;%c4Name%&lt;/b&gt;&lt;/font&gt;&lt;div&gt;[%c4Type%]&lt;/div&gt;&lt;br&gt;&lt;div&gt;&lt;font style=&quot;font-size: 11px&quot;&gt;&lt;font color=&quot;#cccccc&quot;&gt;%c4Description%&lt;/font&gt;&lt;/div&gt;" id="z9D2fOgMpviWhSFQ2ser-49">
          <mxCell style="rounded=1;whiteSpace=wrap;html=1;labelBackgroundColor=none;fillColor=#1061B0;fontColor=#ffffff;align=center;arcSize=10;strokeColor=#0D5091;metaEdit=1;resizable=0;points=[[0.25,0,0],[0.5,0,0],[0.75,0,0],[1,0.25,0],[1,0.5,0],[1,0.75,0],[0.75,1,0],[0.5,1,0],[0.25,1,0],[0,0.75,0],[0,0.5,0],[0,0.25,0]];" vertex="1" parent="1">
            <mxGeometry x="621" y="143" width="240" height="120" as="geometry" />
          </mxCell>
        </object>
      </root>
    </mxGraphModel>
  </diagram>
  <diagram name="Containers" id="j9qQ6FZz1a17E76VgL8F">
    <mxGraphModel dx="3404" dy="1714" grid="0" gridSize="10" guides="1" tooltips="1" connect="1" arrows="1" fold="1" page="0" pageScale="1" pageWidth="850" pageHeight="1100" math="0" shadow="0">
      <root>
        <mxCell id="PDyuNcGqVP8n1x3oob1H-0" />
        <mxCell id="PDyuNcGqVP8n1x3oob1H-1" parent="PDyuNcGqVP8n1x3oob1H-0" />
        <object placeholders="1" c4Name="Frontend&#xa;Release Manager" c4Type="Container" c4Technology="Angular" c4Description="" label="&lt;font style=&quot;font-size: 16px&quot;&gt;&lt;b&gt;%c4Name%&lt;/b&gt;&lt;/font&gt;&lt;div&gt;[%c4Type%: %c4Technology%]&lt;/div&gt;&lt;br&gt;&lt;div&gt;&lt;font style=&quot;font-size: 11px&quot;&gt;&lt;font color=&quot;#E6E6E6&quot;&gt;%c4Description%&lt;/font&gt;&lt;/div&gt;" id="PDyuNcGqVP8n1x3oob1H-2">
          <mxCell style="rounded=1;whiteSpace=wrap;html=1;fontSize=11;labelBackgroundColor=none;fillColor=#23A2D9;fontColor=#ffffff;align=center;arcSize=10;strokeColor=#0E7DAD;metaEdit=1;resizable=0;points=[[0.25,0,0],[0.5,0,0],[0.75,0,0],[1,0.25,0],[1,0.5,0],[1,0.75,0],[0.75,1,0],[0.5,1,0],[0.25,1,0],[0,0.75,0],[0,0.5,0],[0,0.25,0]];" vertex="1" parent="PDyuNcGqVP8n1x3oob1H-1">
            <mxGeometry x="464" y="376" width="240" height="120" as="geometry" />
          </mxCell>
        </object>
        <object placeholders="1" c4Name="Backend&#xa;Release Manage" c4Type="Container" c4Technology="Java" c4Description="" label="&lt;font style=&quot;font-size: 16px&quot;&gt;&lt;b&gt;%c4Name%&lt;/b&gt;&lt;/font&gt;&lt;div&gt;[%c4Type%: %c4Technology%]&lt;/div&gt;&lt;br&gt;&lt;div&gt;&lt;font style=&quot;font-size: 11px&quot;&gt;&lt;font color=&quot;#E6E6E6&quot;&gt;%c4Description%&lt;/font&gt;&lt;/div&gt;" id="PDyuNcGqVP8n1x3oob1H-3">
          <mxCell style="rounded=1;whiteSpace=wrap;html=1;fontSize=11;labelBackgroundColor=none;fillColor=#23A2D9;fontColor=#ffffff;align=center;arcSize=10;strokeColor=#0E7DAD;metaEdit=1;resizable=0;points=[[0.25,0,0],[0.5,0,0],[0.75,0,0],[1,0.25,0],[1,0.5,0],[1,0.75,0],[0.75,1,0],[0.5,1,0],[0.25,1,0],[0,0.75,0],[0,0.5,0],[0,0.25,0]];" vertex="1" parent="PDyuNcGqVP8n1x3oob1H-1">
            <mxGeometry x="619" y="170" width="240" height="120" as="geometry" />
          </mxCell>
        </object>
        <object placeholders="1" c4Name="KeyCloak" c4Type="Software System" c4Description="" label="&lt;font style=&quot;font-size: 16px&quot;&gt;&lt;b&gt;%c4Name%&lt;/b&gt;&lt;/font&gt;&lt;div&gt;[%c4Type%]&lt;/div&gt;&lt;br&gt;&lt;div&gt;&lt;font style=&quot;font-size: 11px&quot;&gt;&lt;font color=&quot;#cccccc&quot;&gt;%c4Description%&lt;/font&gt;&lt;/div&gt;" id="PDyuNcGqVP8n1x3oob1H-4">
          <mxCell style="rounded=1;whiteSpace=wrap;html=1;labelBackgroundColor=none;fillColor=#1061B0;fontColor=#ffffff;align=center;arcSize=10;strokeColor=#0D5091;metaEdit=1;resizable=0;points=[[0.25,0,0],[0.5,0,0],[0.75,0,0],[1,0.25,0],[1,0.5,0],[1,0.75,0],[0.75,1,0],[0.5,1,0],[0.25,1,0],[0,0.75,0],[0,0.5,0],[0,0.25,0]];" vertex="1" parent="PDyuNcGqVP8n1x3oob1H-1">
            <mxGeometry x="839" y="389" width="240" height="120" as="geometry" />
          </mxCell>
        </object>
        <object placeholders="1" c4Type="Database" c4Container="Container" c4Technology="InterSystems IRIS" c4Description="" label="&lt;font style=&quot;font-size: 16px&quot;&gt;&lt;b&gt;%c4Type%&lt;/b&gt;&lt;/font&gt;&lt;div&gt;[%c4Container%:&amp;nbsp;%c4Technology%]&lt;/div&gt;&lt;br&gt;&lt;div&gt;&lt;font style=&quot;font-size: 11px&quot;&gt;&lt;font color=&quot;#E6E6E6&quot;&gt;%c4Description%&lt;/font&gt;&lt;/div&gt;" id="PDyuNcGqVP8n1x3oob1H-5">
          <mxCell style="shape=cylinder3;size=15;whiteSpace=wrap;html=1;boundedLbl=1;rounded=0;labelBackgroundColor=none;fillColor=#23A2D9;fontSize=12;fontColor=#ffffff;align=center;strokeColor=#0E7DAD;metaEdit=1;points=[[0.5,0,0],[1,0.25,0],[1,0.5,0],[1,0.75,0],[0.5,1,0],[0,0.75,0],[0,0.5,0],[0,0.25,0]];resizable=0;" vertex="1" parent="PDyuNcGqVP8n1x3oob1H-1">
            <mxGeometry x="1224" y="186" width="240" height="120" as="geometry" />
          </mxCell>
        </object>
        <object placeholders="1" c4Type="Relationship" c4Description="Merge request" label="&lt;div style=&quot;text-align: left&quot;&gt;&lt;div style=&quot;text-align: center&quot;&gt;&lt;b&gt;%c4Description%&lt;/b&gt;&lt;/div&gt;" id="PDyuNcGqVP8n1x3oob1H-7">
          <mxCell style="endArrow=blockThin;html=1;fontSize=10;fontColor=#404040;strokeWidth=1;endFill=1;strokeColor=#828282;elbow=vertical;metaEdit=1;endSize=14;startSize=14;jumpStyle=arc;jumpSize=16;rounded=0;" edge="1" parent="PDyuNcGqVP8n1x3oob1H-1" source="YlLK6GfdfVBhqfWcVX44-0" target="1cgKaIlv6RD5H8tQA-Bg-0">
            <mxGeometry width="240" relative="1" as="geometry">
              <mxPoint x="-372" y="594.1428571428569" as="sourcePoint" />
              <mxPoint x="257" y="-73" as="targetPoint" />
            </mxGeometry>
          </mxCell>
        </object>
        <object placeholders="1" c4Type="Relationship" c4Description="Authenticate" label="&lt;div style=&quot;text-align: left&quot;&gt;&lt;div style=&quot;text-align: center&quot;&gt;&lt;b&gt;%c4Description%&lt;/b&gt;&lt;/div&gt;" id="PDyuNcGqVP8n1x3oob1H-8">
          <mxCell style="endArrow=blockThin;html=1;fontSize=10;fontColor=#404040;strokeWidth=1;endFill=1;strokeColor=#828282;elbow=vertical;metaEdit=1;endSize=14;startSize=14;jumpStyle=arc;jumpSize=16;rounded=0;" edge="1" parent="PDyuNcGqVP8n1x3oob1H-1" source="PDyuNcGqVP8n1x3oob1H-2" target="PDyuNcGqVP8n1x3oob1H-4">
            <mxGeometry width="240" relative="1" as="geometry">
              <mxPoint x="313" y="333" as="sourcePoint" />
              <mxPoint x="451" y="261" as="targetPoint" />
            </mxGeometry>
          </mxCell>
        </object>
        <object placeholders="1" c4Type="Relationship" c4Description="Validate token" label="&lt;div style=&quot;text-align: left&quot;&gt;&lt;div style=&quot;text-align: center&quot;&gt;&lt;b&gt;%c4Description%&lt;/b&gt;&lt;/div&gt;" id="PDyuNcGqVP8n1x3oob1H-9">
          <mxCell style="endArrow=blockThin;html=1;fontSize=10;fontColor=#404040;strokeWidth=1;endFill=1;strokeColor=#828282;elbow=vertical;metaEdit=1;endSize=14;startSize=14;jumpStyle=arc;jumpSize=16;rounded=0;" edge="1" parent="PDyuNcGqVP8n1x3oob1H-1" source="PDyuNcGqVP8n1x3oob1H-3" target="PDyuNcGqVP8n1x3oob1H-4">
            <mxGeometry width="240" relative="1" as="geometry">
              <mxPoint x="571" y="201" as="sourcePoint" />
              <mxPoint x="613" y="54" as="targetPoint" />
            </mxGeometry>
          </mxCell>
        </object>
        <object placeholders="1" c4Type="Relationship" c4Description="Git Hooks" label="&lt;div style=&quot;text-align: left&quot;&gt;&lt;div style=&quot;text-align: center&quot;&gt;&lt;b&gt;%c4Description%&lt;/b&gt;&lt;/div&gt;" id="PDyuNcGqVP8n1x3oob1H-10">
          <mxCell style="endArrow=blockThin;html=1;fontSize=10;fontColor=#404040;strokeWidth=1;endFill=1;strokeColor=#828282;elbow=vertical;metaEdit=1;endSize=14;startSize=14;jumpStyle=arc;jumpSize=16;rounded=0;" edge="1" parent="PDyuNcGqVP8n1x3oob1H-1" source="PDyuNcGqVP8n1x3oob1H-22" target="1cgKaIlv6RD5H8tQA-Bg-0">
            <mxGeometry width="240" relative="1" as="geometry">
              <mxPoint x="37" y="284" as="sourcePoint" />
              <mxPoint x="497" y="-72.3370165745855" as="targetPoint" />
            </mxGeometry>
          </mxCell>
        </object>
        <object placeholders="1" c4Type="Relationship" c4Technology="JSON/HTTP" c4Description="Makes API calls" label="&lt;div style=&quot;text-align: left&quot;&gt;&lt;div style=&quot;text-align: center&quot;&gt;&lt;b&gt;%c4Description%&lt;/b&gt;&lt;/div&gt;&lt;div style=&quot;text-align: center&quot;&gt;[%c4Technology%]&lt;/div&gt;&lt;/div&gt;" id="PDyuNcGqVP8n1x3oob1H-11">
          <mxCell style="endArrow=blockThin;html=1;fontSize=10;fontColor=#404040;strokeWidth=1;endFill=1;strokeColor=#828282;elbow=vertical;metaEdit=1;endSize=14;startSize=14;jumpStyle=arc;jumpSize=16;rounded=0;" edge="1" parent="PDyuNcGqVP8n1x3oob1H-1" source="PDyuNcGqVP8n1x3oob1H-2" target="PDyuNcGqVP8n1x3oob1H-3">
            <mxGeometry x="0.0631" y="4" width="240" relative="1" as="geometry">
              <mxPoint x="610" y="364" as="sourcePoint" />
              <mxPoint x="775" y="250" as="targetPoint" />
              <mxPoint as="offset" />
            </mxGeometry>
          </mxCell>
        </object>
        <object placeholders="1" c4Type="Relationship" c4Technology="JSON/HTTP" c4Description="Makes API calls to publish&#xa;new software versions" label="&lt;div style=&quot;text-align: left&quot;&gt;&lt;div style=&quot;text-align: center&quot;&gt;&lt;b&gt;%c4Description%&lt;/b&gt;&lt;/div&gt;&lt;div style=&quot;text-align: center&quot;&gt;[%c4Technology%]&lt;/div&gt;&lt;/div&gt;" id="PDyuNcGqVP8n1x3oob1H-12">
          <mxCell style="endArrow=blockThin;html=1;fontSize=10;fontColor=#404040;strokeWidth=1;endFill=1;strokeColor=#828282;elbow=vertical;metaEdit=1;endSize=14;startSize=14;jumpStyle=arc;jumpSize=16;rounded=0;" edge="1" parent="PDyuNcGqVP8n1x3oob1H-1" source="PDyuNcGqVP8n1x3oob1H-22" target="PDyuNcGqVP8n1x3oob1H-3">
            <mxGeometry x="-0.4071" y="5" width="240" relative="1" as="geometry">
              <mxPoint x="691" y="263" as="sourcePoint" />
              <mxPoint x="799" y="263" as="targetPoint" />
              <mxPoint as="offset" />
            </mxGeometry>
          </mxCell>
        </object>
        <mxCell id="PDyuNcGqVP8n1x3oob1H-13" value="Azure blob" style="sketch=0;pointerEvents=1;shadow=0;dashed=0;html=1;strokeColor=none;fillColor=#DF8C42;labelPosition=center;verticalLabelPosition=bottom;verticalAlign=top;align=center;outlineConnect=0;shape=mxgraph.veeam2.azure_blob;" vertex="1" parent="PDyuNcGqVP8n1x3oob1H-1">
          <mxGeometry x="1576" y="459" width="72" height="72" as="geometry" />
        </mxCell>
        <mxCell id="PDyuNcGqVP8n1x3oob1H-14" value="AWS S3" style="sketch=0;pointerEvents=1;shadow=0;dashed=0;html=1;strokeColor=none;fillColor=#DF8C42;labelPosition=center;verticalLabelPosition=bottom;verticalAlign=top;align=center;outlineConnect=0;shape=mxgraph.veeam2.aws_s3;" vertex="1" parent="PDyuNcGqVP8n1x3oob1H-1">
          <mxGeometry x="1576" y="356" width="72" height="72" as="geometry" />
        </mxCell>
        <mxCell id="PDyuNcGqVP8n1x3oob1H-15" value="Local Storage" style="sketch=0;points=[[0,0,0],[0.25,0,0],[0.5,0,0],[0.75,0,0],[1,0,0],[0,1,0],[0.25,1,0],[0.5,1,0],[0.75,1,0],[1,1,0],[0,0.25,0],[0,0.5,0],[0,0.75,0],[1,0.25,0],[1,0.5,0],[1,0.75,0]];outlineConnect=0;fontColor=#232F3E;gradientColor=#60A337;gradientDirection=north;fillColor=#277116;strokeColor=#ffffff;dashed=0;verticalLabelPosition=bottom;verticalAlign=top;align=center;html=1;fontSize=12;fontStyle=0;aspect=fixed;shape=mxgraph.aws4.resourceIcon;resIcon=mxgraph.aws4.fsx_for_windows_file_server;" vertex="1" parent="PDyuNcGqVP8n1x3oob1H-1">
          <mxGeometry x="1576" y="250" width="72" height="72" as="geometry" />
        </mxCell>
        <object placeholders="1" c4Name="Interoperability" c4Type="Container" c4Technology="InterSystems IRIS" c4Description="" label="&lt;font style=&quot;font-size: 16px&quot;&gt;&lt;b&gt;%c4Name%&lt;/b&gt;&lt;/font&gt;&lt;div&gt;[%c4Type%: %c4Technology%]&lt;/div&gt;&lt;br&gt;&lt;div&gt;&lt;font style=&quot;font-size: 11px&quot;&gt;&lt;font color=&quot;#E6E6E6&quot;&gt;%c4Description%&lt;/font&gt;&lt;/div&gt;" id="PDyuNcGqVP8n1x3oob1H-16">
          <mxCell style="rounded=1;whiteSpace=wrap;html=1;fontSize=11;labelBackgroundColor=none;fillColor=#23A2D9;fontColor=#ffffff;align=center;arcSize=10;strokeColor=#0E7DAD;metaEdit=1;resizable=0;points=[[0.25,0,0],[0.5,0,0],[0.75,0,0],[1,0.25,0],[1,0.5,0],[1,0.75,0],[0.75,1,0],[0.5,1,0],[0.25,1,0],[0,0.75,0],[0,0.5,0],[0,0.25,0]];" vertex="1" parent="PDyuNcGqVP8n1x3oob1H-1">
            <mxGeometry x="1224" y="365" width="240" height="120" as="geometry" />
          </mxCell>
        </object>
        <object placeholders="1" c4Type="Relationship" c4Description=" " label="&lt;div style=&quot;text-align: left&quot;&gt;&lt;div style=&quot;text-align: center&quot;&gt;&lt;b&gt;%c4Description%&lt;/b&gt;&lt;/div&gt;" id="PDyuNcGqVP8n1x3oob1H-17">
          <mxCell style="endArrow=blockThin;html=1;fontSize=10;fontColor=#404040;strokeWidth=1;endFill=1;strokeColor=#828282;elbow=vertical;metaEdit=1;endSize=14;startSize=14;jumpStyle=arc;jumpSize=16;rounded=0;" edge="1" parent="PDyuNcGqVP8n1x3oob1H-1" source="PDyuNcGqVP8n1x3oob1H-16" target="PDyuNcGqVP8n1x3oob1H-13">
            <mxGeometry width="240" relative="1" as="geometry">
              <mxPoint x="1100" y="369" as="sourcePoint" />
              <mxPoint x="1234" y="390" as="targetPoint" />
            </mxGeometry>
          </mxCell>
        </object>
        <object placeholders="1" c4Type="Relationship" c4Description=" " label="&lt;div style=&quot;text-align: left&quot;&gt;&lt;div style=&quot;text-align: center&quot;&gt;&lt;b&gt;%c4Description%&lt;/b&gt;&lt;/div&gt;" id="PDyuNcGqVP8n1x3oob1H-18">
          <mxCell style="endArrow=blockThin;html=1;fontSize=10;fontColor=#404040;strokeWidth=1;endFill=1;strokeColor=#828282;elbow=vertical;metaEdit=1;endSize=14;startSize=14;jumpStyle=arc;jumpSize=16;rounded=0;" edge="1" parent="PDyuNcGqVP8n1x3oob1H-1" source="PDyuNcGqVP8n1x3oob1H-16" target="PDyuNcGqVP8n1x3oob1H-14">
            <mxGeometry width="240" relative="1" as="geometry">
              <mxPoint x="1354" y="469" as="sourcePoint" />
              <mxPoint x="1276" y="633" as="targetPoint" />
            </mxGeometry>
          </mxCell>
        </object>
        <object placeholders="1" c4Type="Relationship" c4Description=" " label="&lt;div style=&quot;text-align: left&quot;&gt;&lt;div style=&quot;text-align: center&quot;&gt;&lt;b&gt;%c4Description%&lt;/b&gt;&lt;/div&gt;" id="PDyuNcGqVP8n1x3oob1H-19">
          <mxCell style="endArrow=blockThin;html=1;fontSize=10;fontColor=#404040;strokeWidth=1;endFill=1;strokeColor=#828282;elbow=vertical;metaEdit=1;endSize=14;startSize=14;jumpStyle=arc;jumpSize=16;rounded=0;" edge="1" parent="PDyuNcGqVP8n1x3oob1H-1" source="PDyuNcGqVP8n1x3oob1H-16" target="PDyuNcGqVP8n1x3oob1H-15">
            <mxGeometry width="240" relative="1" as="geometry">
              <mxPoint x="1354" y="469" as="sourcePoint" />
              <mxPoint x="1336" y="633" as="targetPoint" />
            </mxGeometry>
          </mxCell>
        </object>
        <object placeholders="1" c4Name="Release Manager Software Solution" c4Type="SystemScopeBoundary" c4Application="System Context" label="&lt;font style=&quot;font-size: 16px&quot;&gt;&lt;b&gt;&lt;div style=&quot;text-align: left&quot;&gt;%c4Name%&lt;/div&gt;&lt;/b&gt;&lt;/font&gt;&lt;div style=&quot;text-align: left&quot;&gt;[%c4Application%]&lt;/div&gt;" id="PDyuNcGqVP8n1x3oob1H-20">
          <mxCell style="rounded=1;fontSize=11;whiteSpace=wrap;html=1;dashed=1;arcSize=20;fillColor=none;strokeColor=#666666;fontColor=#333333;labelBackgroundColor=none;align=left;verticalAlign=bottom;labelBorderColor=none;spacingTop=0;spacing=10;dashPattern=8 4;metaEdit=1;rotatable=0;perimeter=rectanglePerimeter;noLabel=0;labelPadding=0;allowArrows=0;connectable=0;expand=0;recursiveResize=0;editable=1;pointerEvents=0;absoluteArcSize=1;points=[[0.25,0,0],[0.5,0,0],[0.75,0,0],[1,0.25,0],[1,0.5,0],[1,0.75,0],[0.75,1,0],[0.5,1,0],[0.25,1,0],[0,0.75,0],[0,0.5,0],[0,0.25,0]];" vertex="1" parent="PDyuNcGqVP8n1x3oob1H-1">
            <mxGeometry x="-119" y="-184" width="1801" height="989" as="geometry" />
          </mxCell>
        </object>
        <object placeholders="1" c4Name="CI/CD Tool" c4Type="CI/CD" c4Description="Jenkins, Gitlab-CI, Github-Actions, etc." label="&lt;font style=&quot;font-size: 16px&quot;&gt;&lt;b&gt;%c4Name%&lt;/b&gt;&lt;/font&gt;&lt;div&gt;[%c4Type%]&lt;/div&gt;&lt;br&gt;&lt;div&gt;&lt;font style=&quot;font-size: 11px&quot;&gt;&lt;font color=&quot;#cccccc&quot;&gt;%c4Description%&lt;/font&gt;&lt;/div&gt;" id="PDyuNcGqVP8n1x3oob1H-22">
          <mxCell style="rounded=1;whiteSpace=wrap;html=1;labelBackgroundColor=none;fillColor=#8C8496;fontColor=#ffffff;align=center;arcSize=10;strokeColor=#736782;metaEdit=1;resizable=0;points=[[0.25,0,0],[0.5,0,0],[0.75,0,0],[1,0.25,0],[1,0.5,0],[1,0.75,0],[0.75,1,0],[0.5,1,0],[0.25,1,0],[0,0.75,0],[0,0.5,0],[0,0.25,0]];" vertex="1" parent="PDyuNcGqVP8n1x3oob1H-1">
            <mxGeometry x="619" y="-131" width="240" height="120" as="geometry" />
          </mxCell>
        </object>
        <object placeholders="1" c4Type="Relationship" c4Technology="Web Application" c4Description="Canary Release Management" label="&lt;div style=&quot;text-align: left&quot;&gt;&lt;div style=&quot;text-align: center&quot;&gt;&lt;b&gt;%c4Description%&lt;/b&gt;&lt;/div&gt;&lt;div style=&quot;text-align: center&quot;&gt;[%c4Technology%]&lt;/div&gt;&lt;/div&gt;" id="PDyuNcGqVP8n1x3oob1H-24">
          <mxCell style="endArrow=blockThin;html=1;fontSize=10;fontColor=#404040;strokeWidth=1;endFill=1;strokeColor=#828282;elbow=vertical;metaEdit=1;endSize=14;startSize=14;jumpStyle=arc;jumpSize=16;rounded=0;" edge="1" parent="PDyuNcGqVP8n1x3oob1H-1" source="YlLK6GfdfVBhqfWcVX44-1" target="PDyuNcGqVP8n1x3oob1H-2">
            <mxGeometry width="240" relative="1" as="geometry">
              <mxPoint x="336" y="22.537993920972895" as="sourcePoint" />
              <mxPoint x="317" y="423" as="targetPoint" />
            </mxGeometry>
          </mxCell>
        </object>
        <object placeholders="1" c4Type="Relationship" c4Technology="Application" c4Description="Request to&#xa;Update Version" label="&lt;div style=&quot;text-align: left&quot;&gt;&lt;div style=&quot;text-align: center&quot;&gt;&lt;b&gt;%c4Description%&lt;/b&gt;&lt;/div&gt;&lt;div style=&quot;text-align: center&quot;&gt;[%c4Technology%]&lt;/div&gt;&lt;/div&gt;" id="PDyuNcGqVP8n1x3oob1H-26">
          <mxCell style="endArrow=blockThin;html=1;fontSize=10;fontColor=#404040;strokeWidth=1;endFill=1;strokeColor=#828282;elbow=vertical;metaEdit=1;endSize=14;startSize=14;jumpStyle=arc;jumpSize=16;rounded=0;" edge="1" parent="PDyuNcGqVP8n1x3oob1H-1" source="YlLK6GfdfVBhqfWcVX44-2" target="PDyuNcGqVP8n1x3oob1H-27">
            <mxGeometry width="240" relative="1" as="geometry">
              <mxPoint x="295" y="982" as="sourcePoint" />
              <mxPoint x="1207" y="764" as="targetPoint" />
            </mxGeometry>
          </mxCell>
        </object>
        <object placeholders="1" c4Name="Software to be upgraded" c4Type="Software System" c4Description="" label="&lt;font style=&quot;font-size: 16px&quot;&gt;&lt;b&gt;%c4Name%&lt;/b&gt;&lt;/font&gt;&lt;div&gt;[%c4Type%]&lt;/div&gt;&lt;br&gt;&lt;div&gt;&lt;font style=&quot;font-size: 11px&quot;&gt;&lt;font color=&quot;#cccccc&quot;&gt;%c4Description%&lt;/font&gt;&lt;/div&gt;" id="PDyuNcGqVP8n1x3oob1H-27">
          <mxCell style="rounded=1;whiteSpace=wrap;html=1;labelBackgroundColor=none;fillColor=#8C8496;fontColor=#ffffff;align=center;arcSize=10;strokeColor=#736782;metaEdit=1;resizable=0;points=[[0.25,0,0],[0.5,0,0],[0.75,0,0],[1,0.25,0],[1,0.5,0],[1,0.75,0],[0.75,1,0],[0.5,1,0],[0.25,1,0],[0,0.75,0],[0,0.5,0],[0,0.25,0]];" vertex="1" parent="PDyuNcGqVP8n1x3oob1H-1">
            <mxGeometry x="1867" y="292.5" width="240" height="120" as="geometry" />
          </mxCell>
        </object>
        <object placeholders="1" c4Type="Relationship" c4Technology="Application" c4Description="Request Update Version" label="&lt;div style=&quot;text-align: left&quot;&gt;&lt;div style=&quot;text-align: center&quot;&gt;&lt;b&gt;%c4Description%&lt;/b&gt;&lt;/div&gt;&lt;div style=&quot;text-align: center&quot;&gt;[%c4Technology%]&lt;/div&gt;&lt;/div&gt;" id="PDyuNcGqVP8n1x3oob1H-28">
          <mxCell style="endArrow=blockThin;html=1;fontSize=10;fontColor=#404040;strokeWidth=1;endFill=1;strokeColor=#828282;elbow=vertical;metaEdit=1;endSize=14;startSize=14;jumpStyle=arc;jumpSize=16;rounded=0;exitX=0.5;exitY=0;exitDx=0;exitDy=0;exitPerimeter=0;edgeStyle=orthogonalEdgeStyle;entryX=1;entryY=0.25;entryDx=0;entryDy=0;entryPerimeter=0;" edge="1" parent="PDyuNcGqVP8n1x3oob1H-1" source="PDyuNcGqVP8n1x3oob1H-27" target="PDyuNcGqVP8n1x3oob1H-3">
            <mxGeometry width="240" relative="1" as="geometry">
              <mxPoint x="-147" y="482" as="sourcePoint" />
              <mxPoint x="37" y="495" as="targetPoint" />
              <Array as="points">
                <mxPoint x="1987" y="92" />
                <mxPoint x="961" y="92" />
                <mxPoint x="961" y="200" />
              </Array>
            </mxGeometry>
          </mxCell>
        </object>
        <object placeholders="1" c4Type="Relationship" c4Technology="JSON/HTTP" c4Description="Push/Pull Files" label="&lt;div style=&quot;text-align: left&quot;&gt;&lt;div style=&quot;text-align: center&quot;&gt;&lt;b&gt;%c4Description%&lt;/b&gt;&lt;/div&gt;&lt;div style=&quot;text-align: center&quot;&gt;[%c4Technology%]&lt;/div&gt;&lt;/div&gt;" id="PDyuNcGqVP8n1x3oob1H-29">
          <mxCell style="endArrow=blockThin;html=1;fontSize=10;fontColor=#404040;strokeWidth=1;endFill=1;strokeColor=#828282;elbow=vertical;metaEdit=1;endSize=14;startSize=14;jumpStyle=arc;jumpSize=16;rounded=0;" edge="1" parent="PDyuNcGqVP8n1x3oob1H-1" source="PDyuNcGqVP8n1x3oob1H-3" target="PDyuNcGqVP8n1x3oob1H-16">
            <mxGeometry x="0.002" width="240" relative="1" as="geometry">
              <mxPoint x="853" y="642" as="sourcePoint" />
              <mxPoint x="669" y="524" as="targetPoint" />
              <mxPoint as="offset" />
            </mxGeometry>
          </mxCell>
        </object>
        <object placeholders="1" c4Type="Relationship" c4Technology="Hibernate" c4Description="CRUD Operations" label="&lt;div style=&quot;text-align: left&quot;&gt;&lt;div style=&quot;text-align: center&quot;&gt;&lt;b&gt;%c4Description%&lt;/b&gt;&lt;/div&gt;&lt;div style=&quot;text-align: center&quot;&gt;[%c4Technology%]&lt;/div&gt;&lt;/div&gt;" id="PDyuNcGqVP8n1x3oob1H-30">
          <mxCell style="endArrow=blockThin;html=1;fontSize=10;fontColor=#404040;strokeWidth=1;endFill=1;strokeColor=#828282;elbow=vertical;metaEdit=1;endSize=14;startSize=14;jumpStyle=arc;jumpSize=16;rounded=0;" edge="1" parent="PDyuNcGqVP8n1x3oob1H-1" source="PDyuNcGqVP8n1x3oob1H-3" target="PDyuNcGqVP8n1x3oob1H-5">
            <mxGeometry x="-0.0015" y="2" width="240" relative="1" as="geometry">
              <mxPoint x="695" y="456" as="sourcePoint" />
              <mxPoint x="1234" y="417" as="targetPoint" />
              <mxPoint as="offset" />
            </mxGeometry>
          </mxCell>
        </object>
        <object placeholders="1" c4Type="Relationship" c4Technology="SMTP" c4Description="Send email&#xa;notification" label="&lt;div style=&quot;text-align: left&quot;&gt;&lt;div style=&quot;text-align: center&quot;&gt;&lt;b&gt;%c4Description%&lt;/b&gt;&lt;/div&gt;&lt;div style=&quot;text-align: center&quot;&gt;[%c4Technology%]&lt;/div&gt;&lt;/div&gt;" id="PDyuNcGqVP8n1x3oob1H-31">
          <mxCell style="endArrow=blockThin;html=1;fontSize=10;fontColor=#404040;strokeWidth=1;endFill=1;strokeColor=#828282;elbow=vertical;metaEdit=1;endSize=14;startSize=14;jumpStyle=arc;jumpSize=16;rounded=0;" edge="1" parent="PDyuNcGqVP8n1x3oob1H-1" source="PDyuNcGqVP8n1x3oob1H-3" target="PDyuNcGqVP8n1x3oob1H-32">
            <mxGeometry width="240" relative="1" as="geometry">
              <mxPoint x="255" y="242" as="sourcePoint" />
              <mxPoint x="179" y="297" as="targetPoint" />
            </mxGeometry>
          </mxCell>
        </object>
        <object placeholders="1" c4Name="Notification Server" c4Type="Software System" c4Description="Email, Slack, Teams, etc." label="&lt;font style=&quot;font-size: 16px&quot;&gt;&lt;b&gt;%c4Name%&lt;/b&gt;&lt;/font&gt;&lt;div&gt;[%c4Type%]&lt;/div&gt;&lt;br&gt;&lt;div&gt;&lt;font style=&quot;font-size: 11px&quot;&gt;&lt;font color=&quot;#cccccc&quot;&gt;%c4Description%&lt;/font&gt;&lt;/div&gt;" id="PDyuNcGqVP8n1x3oob1H-32">
          <mxCell style="rounded=1;whiteSpace=wrap;html=1;labelBackgroundColor=none;fillColor=#8C8496;fontColor=#ffffff;align=center;arcSize=10;strokeColor=#736782;metaEdit=1;resizable=0;points=[[0.25,0,0],[0.5,0,0],[0.75,0,0],[1,0.25,0],[1,0.5,0],[1,0.75,0],[0.75,1,0],[0.5,1,0],[0.25,1,0],[0,0.75,0],[0,0.5,0],[0,0.25,0]];" vertex="1" parent="PDyuNcGqVP8n1x3oob1H-1">
            <mxGeometry x="126" y="90" width="240" height="120" as="geometry" />
          </mxCell>
        </object>
        <mxCell id="PDyuNcGqVP8n1x3oob1H-34" value="" style="edgeStyle=orthogonalEdgeStyle;rounded=0;orthogonalLoop=1;jettySize=auto;html=1;" edge="1" parent="PDyuNcGqVP8n1x3oob1H-1" source="PDyuNcGqVP8n1x3oob1H-35" target="PDyuNcGqVP8n1x3oob1H-36">
          <mxGeometry relative="1" as="geometry" />
        </mxCell>
        <mxCell id="PDyuNcGqVP8n1x3oob1H-35" value="ZPM/IPM" style="text;html=1;strokeColor=none;fillColor=none;align=center;verticalAlign=middle;whiteSpace=wrap;rounded=0;" vertex="1" parent="PDyuNcGqVP8n1x3oob1H-1">
          <mxGeometry x="1576" y="216" width="71" height="23" as="geometry" />
        </mxCell>
        <mxCell id="PDyuNcGqVP8n1x3oob1H-36" value="" style="shape=image;imageAspect=0;aspect=fixed;verticalLabelPosition=bottom;verticalAlign=top;image=https://avatars.githubusercontent.com/u/1508217?s=200&amp;v=4;" vertex="1" parent="PDyuNcGqVP8n1x3oob1H-1">
          <mxGeometry x="1576" y="144" width="72" height="72" as="geometry" />
        </mxCell>
        <object placeholders="1" c4Type="Relationship" c4Description=" " label="&lt;div style=&quot;text-align: left&quot;&gt;&lt;div style=&quot;text-align: center&quot;&gt;&lt;b&gt;%c4Description%&lt;/b&gt;&lt;/div&gt;" id="PDyuNcGqVP8n1x3oob1H-37">
          <mxCell style="endArrow=blockThin;html=1;fontSize=10;fontColor=#404040;strokeWidth=1;endFill=1;strokeColor=#828282;elbow=vertical;metaEdit=1;endSize=14;startSize=14;jumpStyle=arc;jumpSize=16;rounded=0;" edge="1" parent="PDyuNcGqVP8n1x3oob1H-1" source="PDyuNcGqVP8n1x3oob1H-16" target="PDyuNcGqVP8n1x3oob1H-36">
            <mxGeometry width="240" relative="1" as="geometry">
              <mxPoint x="1474" y="358" as="sourcePoint" />
              <mxPoint x="1586" y="311" as="targetPoint" />
            </mxGeometry>
          </mxCell>
        </object>
        <object placeholders="1" c4Type="Relationship" c4Technology="Web Application" c4Description="Configure Release Management&#xa;and collect metrics to improve&#xa;continuous delivery" label="&lt;div style=&quot;text-align: left&quot;&gt;&lt;div style=&quot;text-align: center&quot;&gt;&lt;b&gt;%c4Description%&lt;/b&gt;&lt;/div&gt;&lt;div style=&quot;text-align: center&quot;&gt;[%c4Technology%]&lt;/div&gt;&lt;/div&gt;" id="PDyuNcGqVP8n1x3oob1H-39">
          <mxCell style="endArrow=blockThin;html=1;fontSize=10;fontColor=#404040;strokeWidth=1;endFill=1;strokeColor=#828282;elbow=vertical;metaEdit=1;endSize=14;startSize=14;jumpStyle=arc;jumpSize=16;rounded=0;" edge="1" parent="PDyuNcGqVP8n1x3oob1H-1" source="YlLK6GfdfVBhqfWcVX44-3" target="PDyuNcGqVP8n1x3oob1H-2">
            <mxGeometry x="-0.2751" y="2" width="240" relative="1" as="geometry">
              <mxPoint x="562.9375" y="25" as="sourcePoint" />
              <mxPoint x="455" y="228" as="targetPoint" />
              <mxPoint y="-1" as="offset" />
            </mxGeometry>
          </mxCell>
        </object>
        <object placeholders="1" c4Name="IRIS Data Platform" c4Type="SystemScopeBoundary" c4Application="Container" label="&lt;font style=&quot;font-size: 16px&quot;&gt;&lt;b&gt;&lt;div style=&quot;text-align: left&quot;&gt;%c4Name%&lt;/div&gt;&lt;/b&gt;&lt;/font&gt;&lt;div style=&quot;text-align: left&quot;&gt;[%c4Application%]&lt;/div&gt;" id="PDyuNcGqVP8n1x3oob1H-40">
          <mxCell style="rounded=1;fontSize=11;whiteSpace=wrap;html=1;dashed=1;arcSize=20;fillColor=none;strokeColor=#666666;fontColor=#333333;labelBackgroundColor=none;align=left;verticalAlign=bottom;labelBorderColor=none;spacingTop=0;spacing=10;dashPattern=8 4;metaEdit=1;rotatable=0;perimeter=rectanglePerimeter;noLabel=0;labelPadding=0;allowArrows=0;connectable=0;expand=0;recursiveResize=0;editable=1;pointerEvents=0;absoluteArcSize=1;points=[[0.25,0,0],[0.5,0,0],[0.75,0,0],[1,0.25,0],[1,0.5,0],[1,0.75,0],[0.75,1,0],[0.5,1,0],[0.25,1,0],[0,0.75,0],[0,0.5,0],[0,0.25,0]];" vertex="1" parent="PDyuNcGqVP8n1x3oob1H-1">
            <mxGeometry x="1182" y="157" width="328" height="405" as="geometry" />
          </mxCell>
        </object>
        <object placeholders="1" c4Type="Relationship" c4Description="Validate token" label="&lt;div style=&quot;text-align: left&quot;&gt;&lt;div style=&quot;text-align: center&quot;&gt;&lt;b&gt;%c4Description%&lt;/b&gt;&lt;/div&gt;" id="PDyuNcGqVP8n1x3oob1H-41">
          <mxCell style="endArrow=blockThin;html=1;fontSize=10;fontColor=#404040;strokeWidth=1;endFill=1;strokeColor=#828282;elbow=vertical;metaEdit=1;endSize=14;startSize=14;jumpStyle=arc;jumpSize=16;rounded=0;" edge="1" parent="PDyuNcGqVP8n1x3oob1H-1" source="PDyuNcGqVP8n1x3oob1H-16" target="PDyuNcGqVP8n1x3oob1H-4">
            <mxGeometry width="240" relative="1" as="geometry">
              <mxPoint x="672" y="404" as="sourcePoint" />
              <mxPoint x="850" y="293" as="targetPoint" />
            </mxGeometry>
          </mxCell>
        </object>
        <object placeholders="1" c4Name="Customer Context" c4Type="SystemScopeBoundary" c4Application="Customer Environment" label="&lt;font style=&quot;font-size: 16px&quot;&gt;&lt;b&gt;&lt;div style=&quot;text-align: left&quot;&gt;%c4Name%&lt;/div&gt;&lt;/b&gt;&lt;/font&gt;&lt;div style=&quot;text-align: left&quot;&gt;[%c4Application%]&lt;/div&gt;" id="PDyuNcGqVP8n1x3oob1H-42">
          <mxCell style="rounded=1;fontSize=11;whiteSpace=wrap;html=1;dashed=1;arcSize=20;fillColor=none;strokeColor=#666666;fontColor=#333333;labelBackgroundColor=none;align=left;verticalAlign=bottom;labelBorderColor=none;spacingTop=0;spacing=10;dashPattern=8 4;metaEdit=1;rotatable=0;perimeter=rectanglePerimeter;noLabel=0;labelPadding=0;allowArrows=0;connectable=0;expand=0;recursiveResize=0;editable=1;pointerEvents=0;absoluteArcSize=1;points=[[0.25,0,0],[0.5,0,0],[0.75,0,0],[1,0.25,0],[1,0.5,0],[1,0.75,0],[0.75,1,0],[0.5,1,0],[0.25,1,0],[0,0.75,0],[0,0.5,0],[0,0.25,0]];" vertex="1" parent="PDyuNcGqVP8n1x3oob1H-1">
            <mxGeometry x="1786" y="199" width="712" height="307" as="geometry" />
          </mxCell>
        </object>
        <object placeholders="1" c4Name="Release Manager Application" c4Type="SystemScopeBoundary" c4Application="Container" label="&lt;font style=&quot;font-size: 16px&quot;&gt;&lt;b&gt;&lt;div style=&quot;text-align: left&quot;&gt;%c4Name%&lt;/div&gt;&lt;/b&gt;&lt;/font&gt;&lt;div style=&quot;text-align: left&quot;&gt;[%c4Application%]&lt;/div&gt;" id="PDyuNcGqVP8n1x3oob1H-43">
          <mxCell style="rounded=1;fontSize=11;whiteSpace=wrap;html=1;dashed=1;arcSize=20;fillColor=none;strokeColor=#666666;fontColor=#333333;labelBackgroundColor=none;align=left;verticalAlign=bottom;labelBorderColor=none;spacingTop=0;spacing=10;dashPattern=8 4;metaEdit=1;rotatable=0;perimeter=rectanglePerimeter;noLabel=0;labelPadding=0;allowArrows=0;connectable=0;expand=0;recursiveResize=0;editable=1;pointerEvents=0;absoluteArcSize=1;points=[[0.25,0,0],[0.5,0,0],[0.75,0,0],[1,0.25,0],[1,0.5,0],[1,0.75,0],[0.75,1,0],[0.5,1,0],[0.25,1,0],[0,0.75,0],[0,0.5,0],[0,0.25,0]];" vertex="1" parent="PDyuNcGqVP8n1x3oob1H-1">
            <mxGeometry x="422" y="121" width="1249" height="448" as="geometry" />
          </mxCell>
        </object>
        <object placeholders="1" c4Name="Developer" c4Type="Person" c4Description="" label="&lt;font style=&quot;font-size: 16px&quot;&gt;&lt;b&gt;%c4Name%&lt;/b&gt;&lt;/font&gt;&lt;div&gt;[%c4Type%]&lt;/div&gt;&lt;br&gt;&lt;div&gt;&lt;font style=&quot;font-size: 11px&quot;&gt;&lt;font color=&quot;#cccccc&quot;&gt;%c4Description%&lt;/font&gt;&lt;/div&gt;" id="YlLK6GfdfVBhqfWcVX44-0">
          <mxCell style="html=1;fontSize=11;dashed=0;whiteSpace=wrap;fillColor=#083F75;strokeColor=#06315C;fontColor=#ffffff;shape=mxgraph.c4.person2;align=center;metaEdit=1;points=[[0.5,0,0],[1,0.5,0],[1,0.75,0],[0.75,1,0],[0.5,1,0],[0.25,1,0],[0,0.75,0],[0,0.5,0]];resizable=0;" vertex="1" parent="PDyuNcGqVP8n1x3oob1H-1">
            <mxGeometry x="-84" y="-163" width="200" height="180" as="geometry" />
          </mxCell>
        </object>
        <object placeholders="1" c4Name="Release Manager" c4Type="Person" c4Description="Perform Canary Release Management" label="&lt;font style=&quot;font-size: 16px&quot;&gt;&lt;b&gt;%c4Name%&lt;/b&gt;&lt;/font&gt;&lt;div&gt;[%c4Type%]&lt;/div&gt;&lt;br&gt;&lt;div&gt;&lt;font style=&quot;font-size: 11px&quot;&gt;&lt;font color=&quot;#cccccc&quot;&gt;%c4Description%&lt;/font&gt;&lt;/div&gt;" id="YlLK6GfdfVBhqfWcVX44-1">
          <mxCell style="html=1;fontSize=11;dashed=0;whiteSpace=wrap;fillColor=#083F75;strokeColor=#06315C;fontColor=#ffffff;shape=mxgraph.c4.person2;align=center;metaEdit=1;points=[[0.5,0,0],[1,0.5,0],[1,0.75,0],[0.75,1,0],[0.5,1,0],[0.25,1,0],[0,0.75,0],[0,0.5,0]];resizable=0;" vertex="1" parent="PDyuNcGqVP8n1x3oob1H-1">
            <mxGeometry x="123" y="449" width="200" height="180" as="geometry" />
          </mxCell>
        </object>
        <object placeholders="1" c4Name="End User" c4Type="Person" c4Description="Software House User" label="&lt;font style=&quot;font-size: 16px&quot;&gt;&lt;b&gt;%c4Name%&lt;/b&gt;&lt;/font&gt;&lt;div&gt;[%c4Type%]&lt;/div&gt;&lt;br&gt;&lt;div&gt;&lt;font style=&quot;font-size: 11px&quot;&gt;&lt;font color=&quot;#cccccc&quot;&gt;%c4Description%&lt;/font&gt;&lt;/div&gt;" id="YlLK6GfdfVBhqfWcVX44-2">
          <mxCell style="html=1;fontSize=11;dashed=0;whiteSpace=wrap;fillColor=#083F75;strokeColor=#06315C;fontColor=#ffffff;shape=mxgraph.c4.person2;align=center;metaEdit=1;points=[[0.5,0,0],[1,0.5,0],[1,0.75,0],[0.75,1,0],[0.5,1,0],[0.25,1,0],[0,0.75,0],[0,0.5,0]];resizable=0;" vertex="1" parent="PDyuNcGqVP8n1x3oob1H-1">
            <mxGeometry x="2204" y="251" width="200" height="180" as="geometry" />
          </mxCell>
        </object>
        <object placeholders="1" c4Name="System Administrator" c4Type="Person" c4Description="Perform configuration tasks" label="&lt;font style=&quot;font-size: 16px&quot;&gt;&lt;b&gt;%c4Name%&lt;/b&gt;&lt;/font&gt;&lt;div&gt;[%c4Type%]&lt;/div&gt;&lt;br&gt;&lt;div&gt;&lt;font style=&quot;font-size: 11px&quot;&gt;&lt;font color=&quot;#cccccc&quot;&gt;%c4Description%&lt;/font&gt;&lt;/div&gt;" id="YlLK6GfdfVBhqfWcVX44-3">
          <mxCell style="html=1;fontSize=11;dashed=0;whiteSpace=wrap;fillColor=#083F75;strokeColor=#06315C;fontColor=#ffffff;shape=mxgraph.c4.person2;align=center;metaEdit=1;points=[[0.5,0,0],[1,0.5,0],[1,0.75,0],[0.75,1,0],[0.5,1,0],[0.25,1,0],[0,0.75,0],[0,0.5,0]];resizable=0;" vertex="1" parent="PDyuNcGqVP8n1x3oob1H-1">
            <mxGeometry x="963" y="599" width="200" height="180" as="geometry" />
          </mxCell>
        </object>
        <object placeholders="1" c4Type="Relationship" c4Technology="HTTP" c4Description="Download Artifact" label="&lt;div style=&quot;text-align: left&quot;&gt;&lt;div style=&quot;text-align: center&quot;&gt;&lt;b&gt;%c4Description%&lt;/b&gt;&lt;/div&gt;&lt;div style=&quot;text-align: center&quot;&gt;[%c4Technology%]&lt;/div&gt;&lt;/div&gt;" id="Keu833WI3T3S7Tfa0Jkw-0">
          <mxCell style="endArrow=blockThin;html=1;fontSize=10;fontColor=#404040;strokeWidth=1;endFill=1;strokeColor=#828282;elbow=vertical;metaEdit=1;endSize=14;startSize=14;jumpStyle=arc;jumpSize=16;rounded=0;" edge="1" parent="PDyuNcGqVP8n1x3oob1H-1" source="PDyuNcGqVP8n1x3oob1H-27" target="PDyuNcGqVP8n1x3oob1H-36">
            <mxGeometry width="240" relative="1" as="geometry">
              <mxPoint x="1752" y="25" as="sourcePoint" />
              <mxPoint x="869" y="214" as="targetPoint" />
            </mxGeometry>
          </mxCell>
        </object>
        <object placeholders="1" c4Type="Relationship" c4Technology="HTTP" c4Description="Download Artifact" label="&lt;div style=&quot;text-align: left&quot;&gt;&lt;div style=&quot;text-align: center&quot;&gt;&lt;b&gt;%c4Description%&lt;/b&gt;&lt;/div&gt;&lt;div style=&quot;text-align: center&quot;&gt;[%c4Technology%]&lt;/div&gt;&lt;/div&gt;" id="Keu833WI3T3S7Tfa0Jkw-1">
          <mxCell style="endArrow=blockThin;html=1;fontSize=10;fontColor=#404040;strokeWidth=1;endFill=1;strokeColor=#828282;elbow=vertical;metaEdit=1;endSize=14;startSize=14;jumpStyle=arc;jumpSize=16;rounded=0;" edge="1" parent="PDyuNcGqVP8n1x3oob1H-1" source="PDyuNcGqVP8n1x3oob1H-27" target="PDyuNcGqVP8n1x3oob1H-15">
            <mxGeometry width="240" relative="1" as="geometry">
              <mxPoint x="1793" y="59" as="sourcePoint" />
              <mxPoint x="1658" y="162" as="targetPoint" />
            </mxGeometry>
          </mxCell>
        </object>
        <object placeholders="1" c4Type="Relationship" c4Technology="HTTP" c4Description="Download Artifact" label="&lt;div style=&quot;text-align: left&quot;&gt;&lt;div style=&quot;text-align: center&quot;&gt;&lt;b&gt;%c4Description%&lt;/b&gt;&lt;/div&gt;&lt;div style=&quot;text-align: center&quot;&gt;[%c4Technology%]&lt;/div&gt;&lt;/div&gt;" id="Keu833WI3T3S7Tfa0Jkw-2">
          <mxCell style="endArrow=blockThin;html=1;fontSize=10;fontColor=#404040;strokeWidth=1;endFill=1;strokeColor=#828282;elbow=vertical;metaEdit=1;endSize=14;startSize=14;jumpStyle=arc;jumpSize=16;rounded=0;" edge="1" parent="PDyuNcGqVP8n1x3oob1H-1" source="PDyuNcGqVP8n1x3oob1H-27" target="PDyuNcGqVP8n1x3oob1H-14">
            <mxGeometry width="240" relative="1" as="geometry">
              <mxPoint x="1821" y="59" as="sourcePoint" />
              <mxPoint x="1652" y="260" as="targetPoint" />
            </mxGeometry>
          </mxCell>
        </object>
        <object placeholders="1" c4Type="Relationship" c4Technology="HTTP" c4Description="Download Artifact" label="&lt;div style=&quot;text-align: left&quot;&gt;&lt;div style=&quot;text-align: center&quot;&gt;&lt;b&gt;%c4Description%&lt;/b&gt;&lt;/div&gt;&lt;div style=&quot;text-align: center&quot;&gt;[%c4Technology%]&lt;/div&gt;&lt;/div&gt;" id="Keu833WI3T3S7Tfa0Jkw-3">
          <mxCell style="endArrow=blockThin;html=1;fontSize=10;fontColor=#404040;strokeWidth=1;endFill=1;strokeColor=#828282;elbow=vertical;metaEdit=1;endSize=14;startSize=14;jumpStyle=arc;jumpSize=16;rounded=0;" edge="1" parent="PDyuNcGqVP8n1x3oob1H-1" source="PDyuNcGqVP8n1x3oob1H-27" target="PDyuNcGqVP8n1x3oob1H-13">
            <mxGeometry width="240" relative="1" as="geometry">
              <mxPoint x="1835" y="59" as="sourcePoint" />
              <mxPoint x="1644" y="366" as="targetPoint" />
            </mxGeometry>
          </mxCell>
        </object>
        <object placeholders="1" c4Name="Release Stakeholder" c4Type="Person" c4Description="Perform Canary Release Management" label="&lt;font style=&quot;font-size: 16px&quot;&gt;&lt;b&gt;%c4Name%&lt;/b&gt;&lt;/font&gt;&lt;div&gt;[%c4Type%]&lt;/div&gt;&lt;br&gt;&lt;div&gt;&lt;font style=&quot;font-size: 11px&quot;&gt;&lt;font color=&quot;#cccccc&quot;&gt;%c4Description%&lt;/font&gt;&lt;/div&gt;" id="Keu833WI3T3S7Tfa0Jkw-4">
          <mxCell style="html=1;fontSize=11;dashed=0;whiteSpace=wrap;fillColor=#083F75;strokeColor=#06315C;fontColor=#ffffff;shape=mxgraph.c4.person2;align=center;metaEdit=1;points=[[0.5,0,0],[1,0.5,0],[1,0.75,0],[0.75,1,0],[0.5,1,0],[0.25,1,0],[0,0.75,0],[0,0.5,0]];resizable=0;" vertex="1" parent="PDyuNcGqVP8n1x3oob1H-1">
            <mxGeometry x="-93" y="316" width="200" height="180" as="geometry" />
          </mxCell>
        </object>
        <object placeholders="1" c4Type="Relationship" c4Technology="SMTP, PWN, etc." c4Description="Push notification" label="&lt;div style=&quot;text-align: left&quot;&gt;&lt;div style=&quot;text-align: center&quot;&gt;&lt;b&gt;%c4Description%&lt;/b&gt;&lt;/div&gt;&lt;div style=&quot;text-align: center&quot;&gt;[%c4Technology%]&lt;/div&gt;&lt;/div&gt;" id="Keu833WI3T3S7Tfa0Jkw-5">
          <mxCell style="endArrow=blockThin;html=1;fontSize=10;fontColor=#404040;strokeWidth=1;endFill=1;strokeColor=#828282;elbow=vertical;metaEdit=1;endSize=14;startSize=14;jumpStyle=arc;jumpSize=16;rounded=0;entryX=0.5;entryY=0;entryDx=0;entryDy=0;entryPerimeter=0;" edge="1" parent="PDyuNcGqVP8n1x3oob1H-1" source="PDyuNcGqVP8n1x3oob1H-32" target="Keu833WI3T3S7Tfa0Jkw-4">
            <mxGeometry width="240" relative="1" as="geometry">
              <mxPoint x="248" y="300" as="sourcePoint" />
              <mxPoint x="214" y="466" as="targetPoint" />
            </mxGeometry>
          </mxCell>
        </object>
        <object placeholders="1" c4Type="Relationship" c4Technology="SMTP, PWN, etc." c4Description="Push notification" label="&lt;div style=&quot;text-align: left&quot;&gt;&lt;div style=&quot;text-align: center&quot;&gt;&lt;b&gt;%c4Description%&lt;/b&gt;&lt;/div&gt;&lt;div style=&quot;text-align: center&quot;&gt;[%c4Technology%]&lt;/div&gt;&lt;/div&gt;" id="Keu833WI3T3S7Tfa0Jkw-6">
          <mxCell style="endArrow=blockThin;html=1;fontSize=10;fontColor=#404040;strokeWidth=1;endFill=1;strokeColor=#828282;elbow=vertical;metaEdit=1;endSize=14;startSize=14;jumpStyle=arc;jumpSize=16;rounded=0;" edge="1" parent="PDyuNcGqVP8n1x3oob1H-1" source="PDyuNcGqVP8n1x3oob1H-32" target="YlLK6GfdfVBhqfWcVX44-1">
            <mxGeometry width="240" relative="1" as="geometry">
              <mxPoint x="141" y="268" as="sourcePoint" />
              <mxPoint x="22" y="296" as="targetPoint" />
            </mxGeometry>
          </mxCell>
        </object>
        <object placeholders="1" c4Name="SCM" c4Type="Software Configuration Management" c4Description="Git, SVN, Subversion, etc." label="&lt;font style=&quot;font-size: 16px&quot;&gt;&lt;b&gt;%c4Name%&lt;/b&gt;&lt;/font&gt;&lt;div&gt;[%c4Type%]&lt;/div&gt;&lt;br&gt;&lt;div&gt;&lt;font style=&quot;font-size: 11px&quot;&gt;&lt;font color=&quot;#cccccc&quot;&gt;%c4Description%&lt;/font&gt;&lt;/div&gt;" id="1cgKaIlv6RD5H8tQA-Bg-0">
          <mxCell style="rounded=1;whiteSpace=wrap;html=1;labelBackgroundColor=none;fillColor=#8C8496;fontColor=#ffffff;align=center;arcSize=10;strokeColor=#736782;metaEdit=1;resizable=0;points=[[0.25,0,0],[0.5,0,0],[0.75,0,0],[1,0.25,0],[1,0.5,0],[1,0.75,0],[0.75,1,0],[0.5,1,0],[0.25,1,0],[0,0.75,0],[0,0.5,0],[0,0.25,0]];" vertex="1" parent="PDyuNcGqVP8n1x3oob1H-1">
            <mxGeometry x="257" y="-133" width="240" height="120" as="geometry" />
          </mxCell>
        </object>
      </root>
    </mxGraphModel>
  </diagram>
  <diagram id="IUaQn7NjpMRTcZSBrlwW" name="Release Version Management">
    <mxGraphModel dx="2302" dy="657" grid="0" gridSize="10" guides="1" tooltips="1" connect="1" arrows="1" fold="1" page="0" pageScale="1" pageWidth="827" pageHeight="1169" math="0" shadow="0">
      <root>
        <mxCell id="0" />
        <mxCell id="1" parent="0" />
        <mxCell id="Jyow1THzykG0gLUQuOR3-136" value="&lt;b&gt;&lt;font style=&quot;font-size: 20px&quot;&gt;Release Version&lt;/font&gt;&lt;/b&gt;&lt;font color=&quot;#6c767d&quot;&gt;&lt;b&gt;&lt;font style=&quot;font-size: 14px;&quot;&gt;&lt;br style=&quot;font-size: 10px&quot;&gt;Manage version release by product and customer&lt;br&gt;&lt;/font&gt;&lt;/b&gt;&lt;/font&gt;&lt;br style=&quot;font-size: 14px&quot;&gt;" style="html=1;shadow=0;dashed=0;shape=mxgraph.bootstrap.rrect;rSize=5;strokeColor=#DFDFDF;html=1;whiteSpace=wrap;fillColor=#ffffff;fontColor=#000000;verticalAlign=top;align=left;spacing=20;fontSize=14;connectable=0;allowArrows=0;recursiveResize=0;" parent="1" vertex="1">
          <mxGeometry x="-792" y="193" width="961" height="462" as="geometry" />
        </mxCell>
        <mxCell id="Jyow1THzykG0gLUQuOR3-131" value="Cancel" style="html=1;shadow=0;dashed=0;shape=mxgraph.bootstrap.rrect;rSize=5;strokeColor=none;strokeWidth=1;fillColor=#6C767D;fontColor=#FFFFFF;whiteSpace=wrap;align=center;verticalAlign=middle;spacingLeft=0;fontStyle=0;fontSize=16;spacing=5;" parent="Jyow1THzykG0gLUQuOR3-136" vertex="1">
          <mxGeometry x="724" y="393.0009090909091" width="100" height="38.86363636363636" as="geometry" />
        </mxCell>
        <mxCell id="Jyow1THzykG0gLUQuOR3-130" value="Release" style="html=1;shadow=0;dashed=0;shape=mxgraph.bootstrap.rrect;rSize=5;strokeColor=none;strokeWidth=1;fillColor=#0085FC;fontColor=#FFFFFF;whiteSpace=wrap;align=center;verticalAlign=middle;spacingLeft=0;fontStyle=0;fontSize=16;spacing=5;" parent="Jyow1THzykG0gLUQuOR3-136" vertex="1">
          <mxGeometry x="841" y="393.0009090909091" width="80" height="38.86363636363636" as="geometry" />
        </mxCell>
        <mxCell id="Jyow1THzykG0gLUQuOR3-139" value="&lt;b&gt;&lt;font style=&quot;font-size: 20px&quot;&gt;Select one Product&lt;br&gt;&lt;/font&gt;&lt;/b&gt;&lt;br&gt;&lt;br&gt;&lt;br&gt;&lt;br&gt;&lt;br&gt;&lt;br&gt;&lt;br&gt;&lt;br&gt;." style="html=1;shadow=0;dashed=0;shape=mxgraph.bootstrap.rrect;rSize=5;strokeColor=#1CA5B8;html=1;whiteSpace=wrap;fillColor=#ffffff;fontColor=#1CA5B8;verticalAlign=bottom;align=left;spacing=20;spacingBottom=0;fontSize=14;recursiveResize=0;" parent="Jyow1THzykG0gLUQuOR3-136" vertex="1">
          <mxGeometry x="19" y="75" width="202" height="277" as="geometry" />
        </mxCell>
        <mxCell id="Jyow1THzykG0gLUQuOR3-140" value="Product" style="html=1;shadow=0;dashed=0;shape=mxgraph.bootstrap.topButton;rSize=5;perimeter=none;whiteSpace=wrap;fillColor=#F7F7F7;strokeColor=#1CA5B8;fontColor=#6C767D;resizeWidth=1;fontSize=18;align=left;spacing=20;" parent="Jyow1THzykG0gLUQuOR3-139" vertex="1">
          <mxGeometry width="202" height="50" relative="1" as="geometry" />
        </mxCell>
        <mxCell id="Jyow1THzykG0gLUQuOR3-132" value="" style="html=1;shadow=0;dashed=0;shape=mxgraph.bootstrap.rrect;rSize=5;fillColor=#ffffff;strokeColor=#999999;" parent="Jyow1THzykG0gLUQuOR3-139" vertex="1">
          <mxGeometry x="19" y="110" width="170" height="110" as="geometry" />
        </mxCell>
        <mxCell id="Jyow1THzykG0gLUQuOR3-133" value="Lojinha-v7" style="fillColor=none;strokeColor=none;align=left;spacing=20;fontSize=14;" parent="Jyow1THzykG0gLUQuOR3-132" vertex="1">
          <mxGeometry width="170" height="30" relative="1" as="geometry">
            <mxPoint y="10" as="offset" />
          </mxGeometry>
        </mxCell>
        <mxCell id="Jyow1THzykG0gLUQuOR3-134" value="Lojinha-v8" style="fillColor=#0085FC;strokeColor=none;fontColor=#ffffff;align=left;spacing=20;fontSize=14;sketch=0;" parent="Jyow1THzykG0gLUQuOR3-132" vertex="1">
          <mxGeometry width="170" height="30" relative="1" as="geometry">
            <mxPoint y="40" as="offset" />
          </mxGeometry>
        </mxCell>
        <mxCell id="Jyow1THzykG0gLUQuOR3-135" value="Farmacy-v1" style="fillColor=none;strokeColor=none;align=left;spacing=20;fontSize=14;" parent="Jyow1THzykG0gLUQuOR3-132" vertex="1">
          <mxGeometry width="170" height="30" relative="1" as="geometry">
            <mxPoint y="70" as="offset" />
          </mxGeometry>
        </mxCell>
        <mxCell id="Jyow1THzykG0gLUQuOR3-141" value="&lt;b&gt;&lt;font style=&quot;font-size: 20px&quot;&gt;Select a&lt;br&gt;Version&lt;br&gt;&lt;/font&gt;&lt;/b&gt;&lt;br&gt;&lt;br&gt;&lt;br&gt;&lt;br&gt;&lt;br&gt;&lt;br&gt;&lt;br&gt;&lt;br&gt;." style="html=1;shadow=0;dashed=0;shape=mxgraph.bootstrap.rrect;rSize=5;strokeColor=#1CA5B8;html=1;whiteSpace=wrap;fillColor=#ffffff;fontColor=#1CA5B8;verticalAlign=bottom;align=left;spacing=20;spacingBottom=0;fontSize=14;recursiveResize=0;" parent="Jyow1THzykG0gLUQuOR3-136" vertex="1">
          <mxGeometry x="261" y="75" width="202" height="277" as="geometry" />
        </mxCell>
        <mxCell id="Jyow1THzykG0gLUQuOR3-142" value="Versions" style="html=1;shadow=0;dashed=0;shape=mxgraph.bootstrap.topButton;rSize=5;perimeter=none;whiteSpace=wrap;fillColor=#F7F7F7;strokeColor=#1CA5B8;fontColor=#6C767D;resizeWidth=1;fontSize=18;align=left;spacing=20;" parent="Jyow1THzykG0gLUQuOR3-141" vertex="1">
          <mxGeometry width="202" height="50" relative="1" as="geometry" />
        </mxCell>
        <mxCell id="Jyow1THzykG0gLUQuOR3-143" value="" style="html=1;shadow=0;dashed=0;shape=mxgraph.bootstrap.rrect;rSize=5;fillColor=#ffffff;strokeColor=#999999;" parent="Jyow1THzykG0gLUQuOR3-141" vertex="1">
          <mxGeometry x="19" y="110" width="170" height="110" as="geometry" />
        </mxCell>
        <mxCell id="Jyow1THzykG0gLUQuOR3-144" value="8.1.2.3" style="fillColor=none;strokeColor=none;align=left;spacing=20;fontSize=14;" parent="Jyow1THzykG0gLUQuOR3-143" vertex="1">
          <mxGeometry width="170" height="30" relative="1" as="geometry">
            <mxPoint y="10" as="offset" />
          </mxGeometry>
        </mxCell>
        <mxCell id="Jyow1THzykG0gLUQuOR3-145" value="8.2.0.0" style="fillColor=#0085FC;strokeColor=none;fontColor=#ffffff;align=left;spacing=20;fontSize=14;sketch=0;" parent="Jyow1THzykG0gLUQuOR3-143" vertex="1">
          <mxGeometry width="170" height="30" relative="1" as="geometry">
            <mxPoint y="40" as="offset" />
          </mxGeometry>
        </mxCell>
        <mxCell id="Jyow1THzykG0gLUQuOR3-152" value="&lt;b&gt;&lt;font style=&quot;font-size: 20px&quot;&gt;Select one or more Customers&lt;br&gt;&lt;/font&gt;&lt;/b&gt;&lt;br&gt;&lt;br&gt;&lt;br&gt;&lt;br&gt;&lt;br&gt;&lt;br&gt;&lt;br&gt;&lt;br&gt;." style="html=1;shadow=0;dashed=0;shape=mxgraph.bootstrap.rrect;rSize=5;strokeColor=#1CA5B8;html=1;whiteSpace=wrap;fillColor=#ffffff;fontColor=#1CA5B8;verticalAlign=bottom;align=left;spacing=20;spacingBottom=0;fontSize=14;recursiveResize=0;" parent="Jyow1THzykG0gLUQuOR3-136" vertex="1">
          <mxGeometry x="717" y="74" width="202" height="277" as="geometry" />
        </mxCell>
        <mxCell id="Jyow1THzykG0gLUQuOR3-153" value="Customer" style="html=1;shadow=0;dashed=0;shape=mxgraph.bootstrap.topButton;rSize=5;perimeter=none;whiteSpace=wrap;fillColor=#F7F7F7;strokeColor=#1CA5B8;fontColor=#6C767D;resizeWidth=1;fontSize=18;align=left;spacing=20;" parent="Jyow1THzykG0gLUQuOR3-152" vertex="1">
          <mxGeometry width="202" height="50" relative="1" as="geometry" />
        </mxCell>
        <mxCell id="Jyow1THzykG0gLUQuOR3-154" value="" style="html=1;shadow=0;dashed=0;shape=mxgraph.bootstrap.rrect;rSize=5;fillColor=#ffffff;strokeColor=#999999;" parent="Jyow1THzykG0gLUQuOR3-152" vertex="1">
          <mxGeometry x="18" y="110" width="170" height="110" as="geometry" />
        </mxCell>
        <mxCell id="Jyow1THzykG0gLUQuOR3-155" value="Customer A" style="fillColor=none;strokeColor=none;align=left;spacing=20;fontSize=14;" parent="Jyow1THzykG0gLUQuOR3-154" vertex="1">
          <mxGeometry width="170" height="30" relative="1" as="geometry">
            <mxPoint y="10" as="offset" />
          </mxGeometry>
        </mxCell>
        <mxCell id="Jyow1THzykG0gLUQuOR3-156" value="Customer B" style="align=left;spacing=20;fontSize=14;sketch=0;strokeColor=none;" parent="Jyow1THzykG0gLUQuOR3-154" vertex="1">
          <mxGeometry width="170" height="30" relative="1" as="geometry">
            <mxPoint y="40" as="offset" />
          </mxGeometry>
        </mxCell>
        <mxCell id="Jyow1THzykG0gLUQuOR3-161" value="" style="html=1;shadow=0;dashed=0;shape=mxgraph.bootstrap.checkbox2;labelPosition=right;verticalLabelPosition=middle;align=left;verticalAlign=middle;gradientColor=#DEDEDE;fillColor=#EDEDED;checked=0;spacing=5;checkedFill=#0085FC;checkedStroke=#ffffff;sketch=0;" parent="Jyow1THzykG0gLUQuOR3-154" vertex="1">
          <mxGeometry x="6" y="21" width="10" height="10" as="geometry" />
        </mxCell>
        <mxCell id="Jyow1THzykG0gLUQuOR3-162" value="" style="html=1;shadow=0;dashed=0;shape=mxgraph.bootstrap.checkbox2;labelPosition=right;verticalLabelPosition=middle;align=left;verticalAlign=middle;gradientColor=#DEDEDE;fillColor=#EDEDED;checked=0;spacing=5;checkedFill=#0085FC;checkedStroke=#ffffff;sketch=0;" parent="Jyow1THzykG0gLUQuOR3-154" vertex="1">
          <mxGeometry x="6" y="52" width="10" height="10" as="geometry" />
        </mxCell>
        <mxCell id="Jyow1THzykG0gLUQuOR3-163" value="&lt;b&gt;&lt;font style=&quot;font-size: 20px&quot;&gt;Select a Release&lt;br&gt;Status&lt;br&gt;&lt;/font&gt;&lt;/b&gt;&lt;br&gt;&lt;br&gt;&lt;br&gt;&lt;br&gt;&lt;br&gt;&lt;br&gt;&lt;br&gt;&lt;br&gt;." style="html=1;shadow=0;dashed=0;shape=mxgraph.bootstrap.rrect;rSize=5;strokeColor=#1CA5B8;html=1;whiteSpace=wrap;fillColor=#ffffff;fontColor=#1CA5B8;verticalAlign=bottom;align=left;spacing=20;spacingBottom=0;fontSize=14;recursiveResize=0;" parent="Jyow1THzykG0gLUQuOR3-136" vertex="1">
          <mxGeometry x="488" y="76" width="202" height="277" as="geometry" />
        </mxCell>
        <mxCell id="Jyow1THzykG0gLUQuOR3-164" value="Release Status" style="html=1;shadow=0;dashed=0;shape=mxgraph.bootstrap.topButton;rSize=5;perimeter=none;whiteSpace=wrap;fillColor=#F7F7F7;strokeColor=#1CA5B8;fontColor=#6C767D;resizeWidth=1;fontSize=18;align=left;spacing=20;" parent="Jyow1THzykG0gLUQuOR3-163" vertex="1">
          <mxGeometry width="202" height="50" relative="1" as="geometry" />
        </mxCell>
        <mxCell id="Jyow1THzykG0gLUQuOR3-169" value="" style="html=1;shadow=0;dashed=0;shape=mxgraph.bootstrap.rrect;rSize=5;fillColor=#ffffff;strokeColor=#999999;" parent="Jyow1THzykG0gLUQuOR3-163" vertex="1">
          <mxGeometry x="16" y="109" width="170" height="110" as="geometry" />
        </mxCell>
        <mxCell id="Jyow1THzykG0gLUQuOR3-170" value="Internal" style="fillColor=none;strokeColor=none;align=left;spacing=20;fontSize=14;" parent="Jyow1THzykG0gLUQuOR3-169" vertex="1">
          <mxGeometry width="170" height="30" relative="1" as="geometry">
            <mxPoint y="10" as="offset" />
          </mxGeometry>
        </mxCell>
        <mxCell id="Jyow1THzykG0gLUQuOR3-171" value="Canary" style="fillColor=#0085FC;strokeColor=none;fontColor=#ffffff;align=left;spacing=20;fontSize=14;sketch=0;" parent="Jyow1THzykG0gLUQuOR3-169" vertex="1">
          <mxGeometry width="170" height="30" relative="1" as="geometry">
            <mxPoint y="40" as="offset" />
          </mxGeometry>
        </mxCell>
        <mxCell id="Jyow1THzykG0gLUQuOR3-172" value="General Availability" style="fillColor=none;strokeColor=none;align=left;spacing=20;fontSize=14;" parent="Jyow1THzykG0gLUQuOR3-169" vertex="1">
          <mxGeometry width="170" height="30" relative="1" as="geometry">
            <mxPoint y="70" as="offset" />
          </mxGeometry>
        </mxCell>
      </root>
    </mxGraphModel>
  </diagram>
  <diagram id="yV7DOxl5ZKo1QjZJ1ELq" name="Release Version FUP">
    <mxGraphModel dx="2567" dy="1173" grid="0" gridSize="10" guides="1" tooltips="1" connect="1" arrows="1" fold="1" page="0" pageScale="1" pageWidth="827" pageHeight="1169" math="0" shadow="0">
      <root>
        <mxCell id="0" />
        <mxCell id="1" parent="0" />
        <mxCell id="aszMP6AXRWz81Q7aNIXq-1" value="" style="html=1;shadow=0;dashed=0;shape=mxgraph.bootstrap.rrect;rSize=5;strokeColor=#6C767D;html=1;whiteSpace=wrap;fillColor=#ffffff;fontColor=#212529;verticalAlign=bottom;align=left;spacing=20;spacingBottom=0;fontSize=14;recursiveResize=0;" parent="1" vertex="1">
          <mxGeometry x="-340" y="-259" width="1018" height="778" as="geometry" />
        </mxCell>
        <mxCell id="aszMP6AXRWz81Q7aNIXq-2" value="Deployment Status (Release Version Folow-up)" style="html=1;shadow=0;dashed=0;shape=mxgraph.bootstrap.topButton;rSize=5;perimeter=none;whiteSpace=wrap;fillColor=#F7F7F7;strokeColor=#6C767D;fontColor=#6C767D;resizeWidth=1;fontSize=18;align=left;spacing=20;" parent="aszMP6AXRWz81Q7aNIXq-1" vertex="1">
          <mxGeometry width="1018" height="50" relative="1" as="geometry" />
        </mxCell>
        <mxCell id="1eMtjxULQF2DnBedk9p9-16" value="" style="html=1;shadow=0;dashed=0;shape=mxgraph.bootstrap.rrect;rSize=5;strokeColor=#6C767D;html=1;whiteSpace=wrap;fillColor=#ffffff;fontColor=#6C767D;verticalAlign=bottom;align=left;spacing=20;spacingBottom=0;fontSize=14;recursiveResize=0;" parent="aszMP6AXRWz81Q7aNIXq-1" vertex="1">
          <mxGeometry x="54" y="63" width="412" height="249" as="geometry" />
        </mxCell>
        <mxCell id="1eMtjxULQF2DnBedk9p9-17" value="Successful Deployment by Product" style="html=1;shadow=0;dashed=0;shape=mxgraph.bootstrap.topButton;rSize=5;perimeter=none;whiteSpace=wrap;fillColor=#F7F7F7;strokeColor=#6C767D;fontColor=#6C767D;resizeWidth=1;fontSize=18;align=left;spacing=20;" parent="1eMtjxULQF2DnBedk9p9-16" vertex="1">
          <mxGeometry width="412" height="50" relative="1" as="geometry" />
        </mxCell>
        <mxCell id="aszMP6AXRWz81Q7aNIXq-3" value="&amp;nbsp;75%&amp;nbsp; &amp;nbsp; &amp;nbsp; &amp;nbsp; &amp;nbsp; &amp;nbsp; &amp;nbsp; Lojinha-v8" style="html=1;shadow=0;dashed=0;shape=mxgraph.bootstrap.rrect;rSize=5;strokeColor=none;html=1;whiteSpace=wrap;fillColor=#59AFFD;fontColor=#ffffff;align=right;spacing=10;" parent="1eMtjxULQF2DnBedk9p9-16" vertex="1">
          <mxGeometry x="30" y="83" width="184" height="40" as="geometry" />
        </mxCell>
        <mxCell id="aszMP6AXRWz81Q7aNIXq-4" value="" style="html=1;shadow=0;dashed=0;shape=mxgraph.basic.arc;startAngle=0.25;endAngle=1;strokeWidth=4;strokeColor=#ffffff;" parent="aszMP6AXRWz81Q7aNIXq-3" vertex="1">
          <mxGeometry y="0.5" width="20" height="20" relative="1" as="geometry">
            <mxPoint x="15" y="-10" as="offset" />
          </mxGeometry>
        </mxCell>
        <mxCell id="aszMP6AXRWz81Q7aNIXq-15" value="50%&amp;nbsp; &amp;nbsp; &amp;nbsp; &amp;nbsp; &amp;nbsp; &amp;nbsp; &amp;nbsp; Lojinha-v7" style="html=1;shadow=0;dashed=0;shape=mxgraph.bootstrap.rrect;rSize=5;strokeColor=none;html=1;whiteSpace=wrap;fillColor=#FFBC26;fontColor=#ffffff;align=right;spacing=10;" parent="1eMtjxULQF2DnBedk9p9-16" vertex="1">
          <mxGeometry x="30" y="132" width="184" height="40" as="geometry" />
        </mxCell>
        <mxCell id="aszMP6AXRWz81Q7aNIXq-16" value="" style="html=1;shadow=0;dashed=0;shape=mxgraph.basic.arc;startAngle=0.5;endAngle=1;strokeWidth=4;strokeColor=#ffffff;" parent="aszMP6AXRWz81Q7aNIXq-15" vertex="1">
          <mxGeometry y="0.5" width="20" height="20" relative="1" as="geometry">
            <mxPoint x="15" y="-10" as="offset" />
          </mxGeometry>
        </mxCell>
        <mxCell id="1eMtjxULQF2DnBedk9p9-4" value="10%&amp;nbsp; &amp;nbsp; &amp;nbsp; &amp;nbsp; &amp;nbsp; &amp;nbsp; &amp;nbsp; Farmacy-v1" style="html=1;shadow=0;dashed=0;shape=mxgraph.bootstrap.rrect;rSize=5;strokeColor=none;html=1;whiteSpace=wrap;fillColor=#DB2843;fontColor=#ffffff;align=right;spacing=10;" parent="1eMtjxULQF2DnBedk9p9-16" vertex="1">
          <mxGeometry x="30" y="183" width="184" height="40" as="geometry" />
        </mxCell>
        <mxCell id="1eMtjxULQF2DnBedk9p9-5" value="" style="html=1;shadow=0;dashed=0;shape=mxgraph.basic.arc;startAngle=0.9093909914689088;endAngle=1;strokeWidth=4;strokeColor=#ffffff;" parent="1eMtjxULQF2DnBedk9p9-4" vertex="1">
          <mxGeometry y="0.5" width="20" height="20" relative="1" as="geometry">
            <mxPoint x="15" y="-10" as="offset" />
          </mxGeometry>
        </mxCell>
        <mxCell id="1eMtjxULQF2DnBedk9p9-18" value="120 days since the first release" style="text;html=1;strokeColor=none;fillColor=none;align=left;verticalAlign=middle;whiteSpace=wrap;rounded=0;" parent="1eMtjxULQF2DnBedk9p9-16" vertex="1">
          <mxGeometry x="225" y="88" width="173" height="30" as="geometry" />
        </mxCell>
        <mxCell id="1eMtjxULQF2DnBedk9p9-19" value="480 days since the first release" style="text;html=1;strokeColor=none;fillColor=none;align=left;verticalAlign=middle;whiteSpace=wrap;rounded=0;" parent="1eMtjxULQF2DnBedk9p9-16" vertex="1">
          <mxGeometry x="225" y="137" width="173" height="30" as="geometry" />
        </mxCell>
        <mxCell id="1eMtjxULQF2DnBedk9p9-20" value="10 days since the first release" style="text;html=1;strokeColor=none;fillColor=none;align=left;verticalAlign=middle;whiteSpace=wrap;rounded=0;" parent="1eMtjxULQF2DnBedk9p9-16" vertex="1">
          <mxGeometry x="225" y="188" width="173" height="30" as="geometry" />
        </mxCell>
        <mxCell id="1eMtjxULQF2DnBedk9p9-21" value="" style="html=1;shadow=0;dashed=0;shape=mxgraph.bootstrap.rrect;rSize=5;strokeColor=#6C767D;html=1;whiteSpace=wrap;fillColor=#ffffff;fontColor=#212529;verticalAlign=bottom;align=left;spacing=20;spacingBottom=0;fontSize=14;" parent="aszMP6AXRWz81Q7aNIXq-1" vertex="1">
          <mxGeometry x="511" y="63" width="467" height="184" as="geometry" />
        </mxCell>
        <mxCell id="1eMtjxULQF2DnBedk9p9-22" value="Deployment In Progress by Customers" style="html=1;shadow=0;dashed=0;shape=mxgraph.bootstrap.topButton;rSize=5;perimeter=none;whiteSpace=wrap;fillColor=#F7F7F7;strokeColor=#6C767D;fontColor=#6C767D;resizeWidth=1;fontSize=18;align=left;spacing=20;" parent="1eMtjxULQF2DnBedk9p9-21" vertex="1">
          <mxGeometry width="467" height="50" relative="1" as="geometry" />
        </mxCell>
        <mxCell id="1eMtjxULQF2DnBedk9p9-24" value="Customer F: Waiting since 25/Out/2023 12:00am&lt;br&gt;(30 days from now)" style="html=1;shadow=0;dashed=0;shape=mxgraph.bootstrap.rrect;rSize=5;strokeColor=#B20000;strokeWidth=1;fillColor=#DB2843;whiteSpace=wrap;align=left;verticalAlign=middle;spacingLeft=10;fontSize=14;fontColor=#ffffff;" parent="1eMtjxULQF2DnBedk9p9-21" vertex="1">
          <mxGeometry x="22" y="61.088" width="392" height="41.53" as="geometry" />
        </mxCell>
        <mxCell id="1eMtjxULQF2DnBedk9p9-25" value="Customer Z: Waiting since 25/Nov/2023 2:00pm&lt;br&gt;(2 hours ago)" style="html=1;shadow=0;dashed=0;shape=mxgraph.bootstrap.rrect;rSize=5;strokeColor=#005700;strokeWidth=1;fillColor=#33A64C;fontColor=#ffffff;whiteSpace=wrap;align=left;verticalAlign=middle;spacingLeft=10;fontSize=14;" parent="1eMtjxULQF2DnBedk9p9-21" vertex="1">
          <mxGeometry x="22" y="114" width="392" height="41.53" as="geometry" />
        </mxCell>
        <mxCell id="1eMtjxULQF2DnBedk9p9-80" value="" style="html=1;shadow=0;dashed=0;shape=mxgraph.bootstrap.rrect;rSize=5;strokeColor=#DB2843;html=1;whiteSpace=wrap;fillColor=#ffffff;fontColor=#DB2843;verticalAlign=bottom;align=left;spacing=20;spacingBottom=0;fontSize=14;recursiveResize=0;" parent="aszMP6AXRWz81Q7aNIXq-1" vertex="1">
          <mxGeometry x="54" y="336" width="413" height="154" as="geometry" />
        </mxCell>
        <mxCell id="1eMtjxULQF2DnBedk9p9-81" value="Fail Deployment by Customer" style="html=1;shadow=0;dashed=0;shape=mxgraph.bootstrap.topButton;rSize=5;perimeter=none;whiteSpace=wrap;fillColor=#F7F7F7;strokeColor=#DB2843;fontColor=#6C767D;resizeWidth=1;fontSize=18;align=left;spacing=20;" parent="1eMtjxULQF2DnBedk9p9-80" vertex="1">
          <mxGeometry width="413" height="50" relative="1" as="geometry" />
        </mxCell>
        <mxCell id="1eMtjxULQF2DnBedk9p9-83" value="Click for Details" style="rounded=1;whiteSpace=wrap;html=1;arcSize=50;strokeColor=none;strokeWidth=1;fillColor=#DB2843;fontColor=#FFFFFF;whiteSpace=wrap;align=left;verticalAlign=middle;spacingLeft=0;fontStyle=1;fontSize=14;spacing=10;" parent="1eMtjxULQF2DnBedk9p9-80" vertex="1">
          <mxGeometry x="267" y="70.5" width="135" height="20" as="geometry" />
        </mxCell>
        <mxCell id="1eMtjxULQF2DnBedk9p9-107" value="Click for Details" style="rounded=1;whiteSpace=wrap;html=1;arcSize=50;strokeColor=none;strokeWidth=1;fillColor=#DB2843;fontColor=#FFFFFF;whiteSpace=wrap;align=left;verticalAlign=middle;spacingLeft=0;fontStyle=1;fontSize=14;spacing=10;" parent="1eMtjxULQF2DnBedk9p9-80" vertex="1">
          <mxGeometry x="267" y="111.5" width="135" height="20" as="geometry" />
        </mxCell>
        <mxCell id="1eMtjxULQF2DnBedk9p9-105" value="Customer G fail: 24/Nov/2023 01:00pm" style="html=1;shadow=0;dashed=0;shape=mxgraph.bootstrap.rrect;rSize=5;strokeColor=#DB2843;strokeWidth=1;fillColor=none;fontColor=#DB2843;whiteSpace=wrap;align=center;verticalAlign=middle;spacingLeft=0;fontStyle=0;fontSize=12;spacing=5;" parent="1eMtjxULQF2DnBedk9p9-80" vertex="1">
          <mxGeometry x="17" y="66" width="233" height="29" as="geometry" />
        </mxCell>
        <mxCell id="1eMtjxULQF2DnBedk9p9-108" value="Customer S fail: 22/Nov/2023 03:00pm" style="html=1;shadow=0;dashed=0;shape=mxgraph.bootstrap.rrect;rSize=5;strokeColor=#DB2843;strokeWidth=1;fillColor=none;fontColor=#DB2843;whiteSpace=wrap;align=center;verticalAlign=middle;spacingLeft=0;fontStyle=0;fontSize=12;spacing=5;" parent="1eMtjxULQF2DnBedk9p9-80" vertex="1">
          <mxGeometry x="17" y="107" width="233" height="29" as="geometry" />
        </mxCell>
        <mxCell id="1eMtjxULQF2DnBedk9p9-95" value="" style="html=1;shadow=0;dashed=0;shape=mxgraph.bootstrap.rrect;rSize=5;strokeColor=#6C767D;html=1;whiteSpace=wrap;fillColor=#ffffff;fontColor=#212529;verticalAlign=bottom;align=left;spacing=20;spacingBottom=0;fontSize=14;recursiveResize=0;" parent="aszMP6AXRWz81Q7aNIXq-1" vertex="1">
          <mxGeometry x="511" y="270" width="467" height="228" as="geometry" />
        </mxCell>
        <mxCell id="1eMtjxULQF2DnBedk9p9-96" value="Median Deployment Time &lt;br&gt;Customers by version by product" style="html=1;shadow=0;dashed=0;shape=mxgraph.bootstrap.topButton;rSize=5;perimeter=none;whiteSpace=wrap;fillColor=#F7F7F7;strokeColor=#6C767D;fontColor=#6C767D;resizeWidth=1;fontSize=18;align=left;spacing=20;" parent="1eMtjxULQF2DnBedk9p9-95" vertex="1">
          <mxGeometry width="467" height="50" relative="1" as="geometry" />
        </mxCell>
        <mxCell id="1eMtjxULQF2DnBedk9p9-101" value="See outliers" style="html=1;shadow=0;dashed=0;shape=mxgraph.bootstrap.rrect;rSize=5;strokeColor=none;strokeWidth=1;fillColor=#FFBC26;fontColor=#FFFFFF;whiteSpace=wrap;align=center;verticalAlign=middle;spacingLeft=0;fontStyle=0;fontSize=16;spacing=5;" parent="1eMtjxULQF2DnBedk9p9-95" vertex="1">
          <mxGeometry x="325" y="64" width="115" height="40" as="geometry" />
        </mxCell>
        <mxCell id="1eMtjxULQF2DnBedk9p9-104" value="See outliers" style="html=1;shadow=0;dashed=0;shape=mxgraph.bootstrap.rrect;rSize=5;strokeColor=none;strokeWidth=1;fillColor=#FFBC26;fontColor=#FFFFFF;whiteSpace=wrap;align=center;verticalAlign=middle;spacingLeft=0;fontStyle=0;fontSize=16;spacing=5;" parent="1eMtjxULQF2DnBedk9p9-95" vertex="1">
          <mxGeometry x="325" y="114" width="115" height="40" as="geometry" />
        </mxCell>
        <mxCell id="1eMtjxULQF2DnBedk9p9-109" value="LIS - Laboratory Information System v7.1.2.3" style="html=1;shadow=0;dashed=0;shape=mxgraph.bootstrap.rrect;rSize=5;strokeColor=none;strokeWidth=1;fillColor=#0085FC;fontColor=#FFFFFF;whiteSpace=wrap;align=left;verticalAlign=middle;spacingLeft=10;fontStyle=0;fontSize=14;spacingRight=100;" parent="1eMtjxULQF2DnBedk9p9-95" vertex="1">
          <mxGeometry x="22.5" y="64" width="289.5" height="40" as="geometry" />
        </mxCell>
        <mxCell id="1eMtjxULQF2DnBedk9p9-110" value="00:02:00" style="html=1;shadow=0;dashed=0;shape=mxgraph.bootstrap.rrect;rSize=5;strokeColor=none;strokeWidth=1;fillColor=#ffffff;fontColor=#000000;whiteSpace=wrap;align=center;verticalAlign=middle;fontSize=12;" parent="1eMtjxULQF2DnBedk9p9-109" vertex="1">
          <mxGeometry x="1" y="0.5" width="83" height="20" relative="1" as="geometry">
            <mxPoint x="-93" y="-10" as="offset" />
          </mxGeometry>
        </mxCell>
        <mxCell id="1eMtjxULQF2DnBedk9p9-113" value="Diagnostic Center&lt;br&gt;v8.4.5.6&lt;span style=&quot;padding: 0px 0px 0px 2px;&quot;&gt;&lt;/span&gt;&lt;span style=&quot;padding: 0px 0px 0px 2px;&quot;&gt;&lt;/span&gt;&lt;span style=&quot;padding: 0px 0px 0px 2px;&quot;&gt;&lt;/span&gt;" style="html=1;shadow=0;dashed=0;shape=mxgraph.bootstrap.rrect;rSize=5;strokeColor=none;strokeWidth=1;fillColor=#0085FC;fontColor=#FFFFFF;whiteSpace=wrap;align=left;verticalAlign=middle;spacingLeft=10;fontStyle=0;fontSize=14;" parent="1eMtjxULQF2DnBedk9p9-95" vertex="1">
          <mxGeometry x="22.5" y="114" width="289.5" height="40" as="geometry" />
        </mxCell>
        <mxCell id="1eMtjxULQF2DnBedk9p9-114" value="00:00:50" style="html=1;shadow=0;dashed=0;shape=mxgraph.bootstrap.rrect;rSize=5;strokeColor=none;strokeWidth=1;fillColor=#ffffff;fontColor=#000000;whiteSpace=wrap;align=center;verticalAlign=middle;fontSize=12;" parent="1eMtjxULQF2DnBedk9p9-113" vertex="1">
          <mxGeometry x="1" y="0.5" width="83" height="20" relative="1" as="geometry">
            <mxPoint x="-93" y="-10" as="offset" />
          </mxGeometry>
        </mxCell>
        <mxCell id="1eMtjxULQF2DnBedk9p9-115" value="Equipment Automation&lt;br&gt;v6.7.8.9" style="html=1;shadow=0;dashed=0;shape=mxgraph.bootstrap.rrect;rSize=5;strokeColor=none;strokeWidth=1;fillColor=#0085FC;fontColor=#FFFFFF;whiteSpace=wrap;align=left;verticalAlign=middle;spacingLeft=10;fontStyle=0;fontSize=14;" parent="1eMtjxULQF2DnBedk9p9-95" vertex="1">
          <mxGeometry x="22.5" y="164" width="289.5" height="40" as="geometry" />
        </mxCell>
        <mxCell id="1eMtjxULQF2DnBedk9p9-116" value="00:01:40" style="html=1;shadow=0;dashed=0;shape=mxgraph.bootstrap.rrect;rSize=5;strokeColor=none;strokeWidth=1;fillColor=#ffffff;fontColor=#000000;whiteSpace=wrap;align=center;verticalAlign=middle;fontSize=12;" parent="1eMtjxULQF2DnBedk9p9-115" vertex="1">
          <mxGeometry x="1" y="0.5" width="83" height="20" relative="1" as="geometry">
            <mxPoint x="-93" y="-10" as="offset" />
          </mxGeometry>
        </mxCell>
        <mxCell id="1eMtjxULQF2DnBedk9p9-117" value="See outliers" style="html=1;shadow=0;dashed=0;shape=mxgraph.bootstrap.rrect;rSize=5;strokeColor=none;strokeWidth=1;fillColor=#FFBC26;fontColor=#FFFFFF;whiteSpace=wrap;align=center;verticalAlign=middle;spacingLeft=0;fontStyle=0;fontSize=16;spacing=5;" parent="1eMtjxULQF2DnBedk9p9-95" vertex="1">
          <mxGeometry x="325" y="164" width="115" height="40" as="geometry" />
        </mxCell>
        <mxCell id="kcC-_jHl7eZF0fM7hHwf-1" value="" style="html=1;shadow=0;dashed=0;shape=mxgraph.bootstrap.rrect;rSize=5;strokeColor=#6C767D;html=1;whiteSpace=wrap;fillColor=#ffffff;fontColor=#212529;verticalAlign=bottom;align=left;spacing=20;spacingBottom=0;fontSize=14;recursiveResize=0;" vertex="1" parent="aszMP6AXRWz81Q7aNIXq-1">
          <mxGeometry x="511" y="526" width="467" height="228" as="geometry" />
        </mxCell>
        <mxCell id="kcC-_jHl7eZF0fM7hHwf-2" value="Median Download Time &lt;br&gt;Customers by version by product" style="html=1;shadow=0;dashed=0;shape=mxgraph.bootstrap.topButton;rSize=5;perimeter=none;whiteSpace=wrap;fillColor=#F7F7F7;strokeColor=#6C767D;fontColor=#6C767D;resizeWidth=1;fontSize=18;align=left;spacing=20;" vertex="1" parent="kcC-_jHl7eZF0fM7hHwf-1">
          <mxGeometry width="467" height="50" relative="1" as="geometry" />
        </mxCell>
        <mxCell id="kcC-_jHl7eZF0fM7hHwf-3" value="See outliers" style="html=1;shadow=0;dashed=0;shape=mxgraph.bootstrap.rrect;rSize=5;strokeColor=none;strokeWidth=1;fillColor=#FFBC26;fontColor=#FFFFFF;whiteSpace=wrap;align=center;verticalAlign=middle;spacingLeft=0;fontStyle=0;fontSize=16;spacing=5;" vertex="1" parent="kcC-_jHl7eZF0fM7hHwf-1">
          <mxGeometry x="325" y="64" width="115" height="40" as="geometry" />
        </mxCell>
        <mxCell id="kcC-_jHl7eZF0fM7hHwf-4" value="See outliers" style="html=1;shadow=0;dashed=0;shape=mxgraph.bootstrap.rrect;rSize=5;strokeColor=none;strokeWidth=1;fillColor=#FFBC26;fontColor=#FFFFFF;whiteSpace=wrap;align=center;verticalAlign=middle;spacingLeft=0;fontStyle=0;fontSize=16;spacing=5;" vertex="1" parent="kcC-_jHl7eZF0fM7hHwf-1">
          <mxGeometry x="325" y="114" width="115" height="40" as="geometry" />
        </mxCell>
        <mxCell id="kcC-_jHl7eZF0fM7hHwf-5" value="LIS - Laboratory Information System v7.1.2.3" style="html=1;shadow=0;dashed=0;shape=mxgraph.bootstrap.rrect;rSize=5;strokeColor=none;strokeWidth=1;fillColor=#0085FC;fontColor=#FFFFFF;whiteSpace=wrap;align=left;verticalAlign=middle;spacingLeft=10;fontStyle=0;fontSize=14;spacingRight=100;" vertex="1" parent="kcC-_jHl7eZF0fM7hHwf-1">
          <mxGeometry x="22.5" y="64" width="289.5" height="40" as="geometry" />
        </mxCell>
        <mxCell id="kcC-_jHl7eZF0fM7hHwf-6" value="00:02:00" style="html=1;shadow=0;dashed=0;shape=mxgraph.bootstrap.rrect;rSize=5;strokeColor=none;strokeWidth=1;fillColor=#ffffff;fontColor=#000000;whiteSpace=wrap;align=center;verticalAlign=middle;fontSize=12;" vertex="1" parent="kcC-_jHl7eZF0fM7hHwf-5">
          <mxGeometry x="1" y="0.5" width="83" height="20" relative="1" as="geometry">
            <mxPoint x="-93" y="-10" as="offset" />
          </mxGeometry>
        </mxCell>
        <mxCell id="kcC-_jHl7eZF0fM7hHwf-7" value="Diagnostic Center&lt;br&gt;v8.4.5.6&lt;span style=&quot;padding: 0px 0px 0px 2px;&quot;&gt;&lt;/span&gt;&lt;span style=&quot;padding: 0px 0px 0px 2px;&quot;&gt;&lt;/span&gt;&lt;span style=&quot;padding: 0px 0px 0px 2px;&quot;&gt;&lt;/span&gt;" style="html=1;shadow=0;dashed=0;shape=mxgraph.bootstrap.rrect;rSize=5;strokeColor=none;strokeWidth=1;fillColor=#0085FC;fontColor=#FFFFFF;whiteSpace=wrap;align=left;verticalAlign=middle;spacingLeft=10;fontStyle=0;fontSize=14;" vertex="1" parent="kcC-_jHl7eZF0fM7hHwf-1">
          <mxGeometry x="22.5" y="114" width="289.5" height="40" as="geometry" />
        </mxCell>
        <mxCell id="kcC-_jHl7eZF0fM7hHwf-8" value="00:00:50" style="html=1;shadow=0;dashed=0;shape=mxgraph.bootstrap.rrect;rSize=5;strokeColor=none;strokeWidth=1;fillColor=#ffffff;fontColor=#000000;whiteSpace=wrap;align=center;verticalAlign=middle;fontSize=12;" vertex="1" parent="kcC-_jHl7eZF0fM7hHwf-7">
          <mxGeometry x="1" y="0.5" width="83" height="20" relative="1" as="geometry">
            <mxPoint x="-93" y="-10" as="offset" />
          </mxGeometry>
        </mxCell>
        <mxCell id="kcC-_jHl7eZF0fM7hHwf-9" value="Equipment Automation&lt;br&gt;v6.7.8.9" style="html=1;shadow=0;dashed=0;shape=mxgraph.bootstrap.rrect;rSize=5;strokeColor=none;strokeWidth=1;fillColor=#0085FC;fontColor=#FFFFFF;whiteSpace=wrap;align=left;verticalAlign=middle;spacingLeft=10;fontStyle=0;fontSize=14;" vertex="1" parent="kcC-_jHl7eZF0fM7hHwf-1">
          <mxGeometry x="22.5" y="164" width="289.5" height="40" as="geometry" />
        </mxCell>
        <mxCell id="kcC-_jHl7eZF0fM7hHwf-10" value="00:01:40" style="html=1;shadow=0;dashed=0;shape=mxgraph.bootstrap.rrect;rSize=5;strokeColor=none;strokeWidth=1;fillColor=#ffffff;fontColor=#000000;whiteSpace=wrap;align=center;verticalAlign=middle;fontSize=12;" vertex="1" parent="kcC-_jHl7eZF0fM7hHwf-9">
          <mxGeometry x="1" y="0.5" width="83" height="20" relative="1" as="geometry">
            <mxPoint x="-93" y="-10" as="offset" />
          </mxGeometry>
        </mxCell>
        <mxCell id="kcC-_jHl7eZF0fM7hHwf-11" value="See outliers" style="html=1;shadow=0;dashed=0;shape=mxgraph.bootstrap.rrect;rSize=5;strokeColor=none;strokeWidth=1;fillColor=#FFBC26;fontColor=#FFFFFF;whiteSpace=wrap;align=center;verticalAlign=middle;spacingLeft=0;fontStyle=0;fontSize=16;spacing=5;" vertex="1" parent="kcC-_jHl7eZF0fM7hHwf-1">
          <mxGeometry x="325" y="164" width="115" height="40" as="geometry" />
        </mxCell>
        <mxCell id="1eMtjxULQF2DnBedk9p9-87" value="Installation Fail Details" style="html=1;shadow=0;dashed=0;shape=mxgraph.bootstrap.rrect;rSize=5;html=1;strokeColor=#C8C8C8;fillColor=#ffffff;whiteSpace=wrap;verticalAlign=top;align=left;fontSize=18;spacing=15;spacingTop=-5;" parent="1" vertex="1">
          <mxGeometry x="-784" y="68" width="400" height="510" as="geometry" />
        </mxCell>
        <mxCell id="1eMtjxULQF2DnBedk9p9-88" value="" style="shape=line;strokeColor=#dddddd;resizeWidth=1;" parent="1eMtjxULQF2DnBedk9p9-87" vertex="1">
          <mxGeometry width="400" height="10" relative="1" as="geometry">
            <mxPoint y="50" as="offset" />
          </mxGeometry>
        </mxCell>
        <mxCell id="1eMtjxULQF2DnBedk9p9-89" value="" style="html=1;shadow=0;dashed=0;shape=mxgraph.bootstrap.x;strokeColor=#868686;strokeWidth=2;" parent="1eMtjxULQF2DnBedk9p9-87" vertex="1">
          <mxGeometry x="1" width="8" height="8" relative="1" as="geometry">
            <mxPoint x="-24" y="20" as="offset" />
          </mxGeometry>
        </mxCell>
        <mxCell id="1eMtjxULQF2DnBedk9p9-90" value="Cras mattis consectetur purus sit amet fermentum. Cras justo odio, dapibus ac facilisis in, egestas eget quam. Morbi leo risus, porta ac consectetur ac, vestibulum at eros.&lt;br&gt;&lt;br&gt;Praesent commodo cursus magna, vel scelerisque nisl consectetur et. Vivamus sagittis lacus vel augue laoreet rutrum faucibus dolor auctor.&lt;br&gt;&lt;br&gt;Aenean lacinia bibendum nulla sed consectetur. Praesent commodo cursus magna, vel scelerisque nisl consectetur et. Donec sed odio dui. Donec ullamcorper nulla non metus auctor fringilla.&lt;br&gt;&lt;br&gt;Cras mattis consectetur purus sit amet fermentum. Cras justo odio, dapibus ac facilisis in, egestas eget quam. Morbi leo risus, porta ac consectetur ac, vestibulum at eros.&lt;br&gt;&lt;br&gt;Praesent commodo cursus magna, vel scelerisque nisl consectetur et. Vivamus sagittis lacus vel augue laoreet rutrum faucibus dolor auctor." style="strokeColor=none;fillColor=none;resizeWidth=1;align=left;verticalAlign=top;spacing=10;fontSize=14;whiteSpace=wrap;html=1;" parent="1eMtjxULQF2DnBedk9p9-87" vertex="1">
          <mxGeometry width="400" height="350" relative="1" as="geometry">
            <mxPoint y="60" as="offset" />
          </mxGeometry>
        </mxCell>
        <mxCell id="1eMtjxULQF2DnBedk9p9-91" value="" style="shape=line;strokeColor=#dddddd;resizeWidth=1;" parent="1eMtjxULQF2DnBedk9p9-87" vertex="1">
          <mxGeometry width="410" height="10" relative="1" as="geometry">
            <mxPoint y="420" as="offset" />
          </mxGeometry>
        </mxCell>
        <mxCell id="1eMtjxULQF2DnBedk9p9-93" value="Close" style="html=1;shadow=0;dashed=0;shape=mxgraph.bootstrap.rrect;rSize=5;fillColor=#6C757D;strokeColor=none;fontColor=#FFFFFF;fontSize=14;" parent="1eMtjxULQF2DnBedk9p9-87" vertex="1">
          <mxGeometry x="1" y="1" width="70" height="40" relative="1" as="geometry">
            <mxPoint x="-235" y="-59" as="offset" />
          </mxGeometry>
        </mxCell>
        <mxCell id="1eMtjxULQF2DnBedk9p9-94" style="rounded=0;orthogonalLoop=1;jettySize=auto;html=1;dashed=1;strokeColor=#DB2843;" parent="1" source="1eMtjxULQF2DnBedk9p9-108" target="1eMtjxULQF2DnBedk9p9-87" edge="1">
          <mxGeometry relative="1" as="geometry">
            <mxPoint x="-202.75502008032117" y="213" as="sourcePoint" />
          </mxGeometry>
        </mxCell>
        <mxCell id="1eMtjxULQF2DnBedk9p9-118" value="Median download time outliers" style="html=1;shadow=0;dashed=0;shape=mxgraph.bootstrap.rrect;rSize=5;html=1;strokeColor=#C8C8C8;fillColor=#ffffff;whiteSpace=wrap;verticalAlign=top;align=left;fontSize=18;spacing=15;spacingTop=-5;" parent="1" vertex="1">
          <mxGeometry x="730" y="7" width="400" height="510" as="geometry" />
        </mxCell>
        <mxCell id="1eMtjxULQF2DnBedk9p9-119" value="" style="shape=line;strokeColor=#dddddd;resizeWidth=1;" parent="1eMtjxULQF2DnBedk9p9-118" vertex="1">
          <mxGeometry width="400" height="10" relative="1" as="geometry">
            <mxPoint y="50" as="offset" />
          </mxGeometry>
        </mxCell>
        <mxCell id="1eMtjxULQF2DnBedk9p9-120" value="" style="html=1;shadow=0;dashed=0;shape=mxgraph.bootstrap.x;strokeColor=#868686;strokeWidth=2;" parent="1eMtjxULQF2DnBedk9p9-118" vertex="1">
          <mxGeometry x="1" width="8" height="8" relative="1" as="geometry">
            <mxPoint x="-24" y="20" as="offset" />
          </mxGeometry>
        </mxCell>
        <mxCell id="1eMtjxULQF2DnBedk9p9-122" value="" style="shape=line;strokeColor=#dddddd;resizeWidth=1;" parent="1eMtjxULQF2DnBedk9p9-118" vertex="1">
          <mxGeometry width="410" height="10" relative="1" as="geometry">
            <mxPoint y="420" as="offset" />
          </mxGeometry>
        </mxCell>
        <mxCell id="1eMtjxULQF2DnBedk9p9-123" value="Close" style="html=1;shadow=0;dashed=0;shape=mxgraph.bootstrap.rrect;rSize=5;fillColor=#6C757D;strokeColor=none;fontColor=#FFFFFF;fontSize=14;" parent="1eMtjxULQF2DnBedk9p9-118" vertex="1">
          <mxGeometry x="1" y="1" width="70" height="40" relative="1" as="geometry">
            <mxPoint x="-235" y="-59" as="offset" />
          </mxGeometry>
        </mxCell>
      </root>
    </mxGraphModel>
  </diagram>
  <diagram id="gcZtFg9EuNFVEcV3dQE3" name="Plano">
    <mxGraphModel dx="1902" dy="1057" grid="0" gridSize="10" guides="1" tooltips="1" connect="1" arrows="1" fold="1" page="0" pageScale="1" pageWidth="850" pageHeight="1100" math="0" shadow="0">
      <root>
        <mxCell id="0" />
        <mxCell id="1" parent="0" />
        <mxCell id="kO_zxhvp5M1dV8TQQvKQ-1" value="Backend" style="rounded=1;whiteSpace=wrap;html=1;fillColor=#dae8fc;strokeColor=#6c8ebf;" vertex="1" parent="1">
          <mxGeometry x="53" y="-61" width="120" height="60" as="geometry" />
        </mxCell>
        <mxCell id="kO_zxhvp5M1dV8TQQvKQ-2" value="BD" style="rounded=1;whiteSpace=wrap;html=1;fillColor=#dae8fc;strokeColor=#6c8ebf;" vertex="1" parent="1">
          <mxGeometry x="-84" y="-61" width="120" height="60" as="geometry" />
        </mxCell>
        <mxCell id="kO_zxhvp5M1dV8TQQvKQ-3" value="Interoperability" style="rounded=1;whiteSpace=wrap;html=1;fillColor=#f8cecc;strokeColor=#b85450;" vertex="1" parent="1">
          <mxGeometry x="330" y="-61" width="120" height="60" as="geometry" />
        </mxCell>
        <mxCell id="kO_zxhvp5M1dV8TQQvKQ-4" value="Escrita" style="rounded=1;whiteSpace=wrap;html=1;fillColor=#fff2cc;strokeColor=#d6b656;" vertex="1" parent="1">
          <mxGeometry x="467" y="-61" width="120" height="60" as="geometry" />
        </mxCell>
        <mxCell id="kO_zxhvp5M1dV8TQQvKQ-5" value="PEX&lt;br&gt;Service" style="rounded=1;whiteSpace=wrap;html=1;fillColor=#f8cecc;strokeColor=#b85450;" vertex="1" parent="1">
          <mxGeometry x="330" y="11" width="120" height="60" as="geometry" />
        </mxCell>
        <mxCell id="kO_zxhvp5M1dV8TQQvKQ-6" value="Operation p/&lt;br&gt;Cloud Storage" style="rounded=1;whiteSpace=wrap;html=1;fillColor=#f8cecc;strokeColor=#b85450;" vertex="1" parent="1">
          <mxGeometry x="330" y="85" width="120" height="60" as="geometry" />
        </mxCell>
        <mxCell id="kO_zxhvp5M1dV8TQQvKQ-7" value="Artigo" style="rounded=1;whiteSpace=wrap;html=1;fillColor=#f8cecc;strokeColor=#b85450;" vertex="1" parent="1">
          <mxGeometry x="467" y="11" width="120" height="60" as="geometry" />
        </mxCell>
        <mxCell id="kO_zxhvp5M1dV8TQQvKQ-8" value="Markdown&lt;br&gt;Doc de Tryout" style="rounded=1;whiteSpace=wrap;html=1;fillColor=#f8cecc;strokeColor=#b85450;" vertex="1" parent="1">
          <mxGeometry x="467" y="85" width="120" height="60" as="geometry" />
        </mxCell>
        <mxCell id="kO_zxhvp5M1dV8TQQvKQ-9" value="Preenchimento do cadastro no concurso" style="rounded=1;whiteSpace=wrap;html=1;fillColor=#f8cecc;strokeColor=#b85450;" vertex="1" parent="1">
          <mxGeometry x="467" y="162" width="120" height="60" as="geometry" />
        </mxCell>
        <mxCell id="0bGBxI6HjLxDZeeyCU3c-1" value="Running Online&lt;br&gt;Exemple" style="rounded=1;whiteSpace=wrap;html=1;fillColor=#f8cecc;strokeColor=#b85450;" vertex="1" parent="1">
          <mxGeometry x="192" y="-61" width="120" height="60" as="geometry" />
        </mxCell>
      </root>
    </mxGraphModel>
  </diagram>
</mxfile>
